{"glyphs":{"0":{"ha":985,"x_min":65,"x_max":920,"o":"m 492 -25 q 264 38 360 -25 q 117 219 169 101 q 66 504 65 337 q 118 786 66 670 q 265 963 169 902 q 492 1024 360 1024 q 720 963 624 1024 q 868 786 816 902 q 919 504 920 669 q 868 218 919 337 q 720 38 816 100 q 492 -25 625 -25 m 492 175 q 620 256 571 175 q 668 504 669 336 q 646 684 668 613 q 584 791 624 756 q 492 826 545 826 q 365 746 414 826 q 317 504 317 667 q 338 320 316 393 q 400 211 360 247 q 492 175 440 175 z "},"1":{"ha":691,"x_min":66,"x_max":542,"o":"m 542 1010 l 542 0 l 298 0 l 298 782 l 292 782 l 66 644 l 66 855 l 315 1010 l 542 1010 z "},"2":{"ha":886,"x_min":60,"x_max":822,"o":"m 74 0 l 74 176 l 443 498 q 513 567 484 536 q 558 630 543 598 q 573 699 573 662 q 555 771 573 741 q 505 817 537 801 q 431 834 472 834 q 358 817 389 834 q 309 767 326 799 q 291 690 291 735 l 60 690 q 106 868 60 793 q 236 983 152 943 q 432 1024 321 1024 q 632 985 547 1024 q 763 878 717 947 q 810 719 810 809 q 787 604 810 661 q 704 479 763 547 q 534 315 644 410 l 413 203 l 413 197 l 822 197 l 822 0 l 74 0 z "},"3":{"ha":926,"x_min":62,"x_max":864,"o":"m 459 -14 q 254 26 343 -14 q 114 136 165 66 q 62 297 63 206 l 307 297 q 328 238 309 264 q 382 199 348 213 q 460 184 416 184 q 536 200 503 184 q 588 243 570 216 q 607 306 607 270 q 586 369 607 341 q 528 412 566 397 q 439 427 490 427 l 341 427 l 341 601 l 439 601 q 518 616 484 601 q 572 657 552 630 q 590 719 591 684 q 574 779 591 753 q 528 819 558 805 q 461 834 499 834 q 387 819 420 834 q 335 779 355 805 q 315 718 316 753 l 82 718 q 132 877 83 808 q 267 985 182 946 q 461 1024 352 1024 q 652 986 569 1024 q 780 883 734 948 q 826 735 826 817 q 770 594 826 650 q 626 526 714 539 l 626 518 q 804 442 744 505 q 863 287 864 380 q 812 131 863 199 q 669 25 760 64 q 459 -14 577 -14 z "},"4":{"ha":958,"x_min":62,"x_max":904,"o":"m 62 168 l 62 358 l 476 1010 l 645 1010 l 645 752 l 547 752 l 305 368 l 305 360 l 904 360 l 904 168 l 62 168 m 550 0 l 550 226 l 555 309 l 555 1010 l 783 1010 l 783 0 l 550 0 z "},"5":{"ha":912,"x_min":78,"x_max":853,"o":"m 461 -14 q 265 26 351 -14 q 129 136 179 66 q 78 297 80 206 l 315 297 q 360 207 318 241 q 461 174 402 174 q 543 194 507 174 q 598 251 578 214 q 618 335 618 288 q 598 421 618 384 q 542 478 578 457 q 460 498 506 498 q 377 479 416 499 q 317 425 337 459 l 102 466 l 145 1010 l 794 1010 l 794 813 l 346 813 l 323 575 l 329 575 q 410 644 354 617 q 538 672 466 672 q 700 630 628 672 q 812 513 771 587 q 853 342 853 438 q 804 158 853 238 q 667 32 755 77 q 461 -14 579 -14 z "},"6":{"ha":934,"x_min":58,"x_max":871,"o":"m 479 -14 q 321 13 397 -14 q 185 99 245 40 q 92 254 126 158 q 59 488 58 350 q 89 712 59 613 q 175 881 119 811 q 309 987 231 950 q 484 1024 388 1024 q 672 983 590 1024 q 801 872 753 942 q 859 718 850 803 l 619 718 q 571 791 608 766 q 484 816 535 816 q 346 735 392 816 q 299 520 300 655 l 306 520 q 365 598 327 566 q 455 648 404 631 q 562 666 506 666 q 723 624 653 666 q 832 509 792 582 q 871 343 871 436 q 821 157 871 237 q 683 31 771 76 q 479 -14 595 -14 m 478 174 q 558 195 523 174 q 614 253 594 216 q 634 335 634 289 q 614 417 634 381 q 559 474 594 453 q 478 496 524 496 q 417 483 445 496 q 367 449 388 471 q 334 398 346 427 q 322 334 323 368 q 343 253 323 290 q 398 195 363 217 q 478 174 433 174 z "},"7":{"ha":837,"x_min":48,"x_max":777,"o":"m 117 0 l 525 807 l 525 813 l 48 813 l 48 1010 l 777 1010 l 777 812 l 368 0 l 117 0 z "},"8":{"ha":938,"x_min":61,"x_max":877,"o":"m 469 -14 q 259 24 351 -14 q 114 127 166 62 q 61 273 61 191 q 91 388 61 336 q 173 475 121 440 q 288 520 224 510 l 288 528 q 152 605 205 543 q 99 751 99 667 q 147 891 99 830 q 278 988 195 953 q 469 1024 362 1024 q 660 988 576 1024 q 791 891 743 953 q 839 751 839 830 q 786 605 839 667 q 650 528 732 543 l 650 520 q 765 475 713 510 q 847 388 816 440 q 877 273 877 336 q 824 127 877 191 q 679 24 771 62 q 469 -14 587 -14 m 469 159 q 548 176 514 159 q 601 224 582 193 q 621 293 621 254 q 601 363 621 332 q 547 411 581 394 q 469 429 513 429 q 391 411 426 429 q 337 363 357 394 q 317 293 317 332 q 337 224 317 254 q 390 177 356 194 q 469 159 425 159 m 469 601 q 537 617 508 601 q 584 660 567 632 q 601 724 601 689 q 584 787 601 760 q 538 829 567 814 q 469 845 508 845 q 400 829 431 845 q 354 787 370 814 q 337 724 337 760 q 354 661 337 689 q 401 617 371 633 q 469 601 431 601 z "},"9":{"ha":934,"x_min":63,"x_max":875,"o":"m 455 1024 q 613 997 538 1024 q 748 912 689 970 q 841 758 807 853 q 875 526 875 663 q 845 300 875 400 q 759 130 815 200 q 625 23 703 60 q 450 -14 546 -14 q 262 27 343 -14 q 132 139 181 69 q 74 295 84 209 l 315 295 q 363 220 326 245 q 450 194 399 194 q 588 275 543 194 q 634 493 634 355 l 628 493 q 568 415 607 448 q 479 365 530 383 q 372 348 428 348 q 212 390 281 348 q 103 504 143 431 q 64 669 64 576 q 112 854 63 774 q 250 979 162 934 q 455 1024 338 1024 m 456 836 q 376 815 411 836 q 320 758 340 794 q 300 677 300 722 q 321 596 301 632 q 376 539 341 560 q 455 518 410 518 q 517 530 489 518 q 567 564 546 543 q 600 616 588 586 q 612 678 613 645 q 591 758 612 722 q 536 815 571 794 q 456 836 501 836 z "},"A":{"ha":1072,"x_min":33,"x_max":1039,"o":"m 295 0 l 33 0 l 373 1010 l 698 1010 l 1039 0 l 777 0 l 540 756 l 532 756 l 295 0 m 260 398 l 808 398 l 808 212 l 260 212 l 260 398 z "},"Ä":{"ha":1072,"x_min":33,"x_max":1039,"o":"m 295 0 l 33 0 l 373 1010 l 698 1010 l 1039 0 l 777 0 l 540 756 l 532 756 l 295 0 m 260 398 l 808 398 l 808 212 l 260 212 l 260 398 m 383 1106 q 304 1138 336 1106 q 271 1214 271 1169 q 304 1290 271 1258 q 383 1321 336 1321 q 461 1290 429 1321 q 493 1214 493 1258 q 461 1138 493 1169 q 383 1106 429 1106 m 690 1106 q 611 1138 644 1106 q 579 1214 579 1169 q 611 1290 579 1258 q 690 1321 644 1321 q 769 1290 736 1321 q 801 1214 801 1258 q 769 1138 801 1169 q 690 1106 736 1106 z "},"Ã":{"ha":1072,"x_min":33,"x_max":1039,"o":"m 295 0 l 33 0 l 373 1010 l 698 1010 l 1039 0 l 777 0 l 540 756 l 532 756 l 295 0 m 260 398 l 808 398 l 808 212 l 260 212 l 260 398 m 398 1109 l 273 1110 q 320 1262 273 1210 q 437 1313 368 1313 q 499 1301 473 1313 q 545 1274 525 1290 q 582 1248 565 1259 q 619 1236 600 1236 q 662 1257 648 1236 q 676 1312 675 1277 l 799 1311 q 750 1160 798 1212 q 635 1107 703 1108 q 571 1118 597 1106 q 527 1145 545 1130 q 490 1172 508 1161 q 452 1184 473 1184 q 413 1164 428 1184 q 398 1109 398 1145 z "},"À":{"ha":1072,"x_min":33,"x_max":1039,"o":"m 295 0 l 33 0 l 373 1010 l 698 1010 l 1039 0 l 777 0 l 540 756 l 532 756 l 295 0 m 260 398 l 808 398 l 808 212 l 260 212 l 260 398 m 455 1106 l 306 1329 l 519 1329 l 619 1106 l 455 1106 z "},"Á":{"ha":1072,"x_min":33,"x_max":1039,"o":"m 295 0 l 33 0 l 373 1010 l 698 1010 l 1039 0 l 777 0 l 540 756 l 532 756 l 295 0 m 260 398 l 808 398 l 808 212 l 260 212 l 260 398 m 453 1106 l 552 1329 l 766 1329 l 617 1106 l 453 1106 z "},"Â":{"ha":1072,"x_min":33,"x_max":1039,"o":"m 295 0 l 33 0 l 373 1010 l 698 1010 l 1039 0 l 777 0 l 540 756 l 532 756 l 295 0 m 260 398 l 808 398 l 808 212 l 260 212 l 260 398 m 634 1101 l 536 1215 l 438 1101 l 236 1101 l 236 1107 l 449 1328 l 622 1328 l 836 1107 l 836 1101 l 634 1101 z "},"Å":{"ha":1072,"x_min":33,"x_max":1039,"o":"m 295 0 l 33 0 l 373 1010 l 698 1010 l 1039 0 l 777 0 l 540 756 l 532 756 l 295 0 m 260 398 l 808 398 l 808 212 l 260 212 l 260 398 m 536 1065 q 426 1109 472 1065 q 381 1215 381 1153 q 402 1291 381 1257 q 458 1345 423 1325 q 536 1365 493 1365 q 614 1345 579 1365 q 670 1291 649 1325 q 690 1215 690 1257 q 670 1140 690 1174 q 614 1085 649 1105 q 536 1065 579 1065 m 536 1153 q 581 1172 562 1154 q 601 1215 601 1190 q 582 1259 601 1241 q 536 1277 563 1277 q 490 1259 509 1276 q 471 1215 471 1241 q 490 1171 471 1190 q 536 1153 509 1153 z "},"Æ":{"ha":1449,"x_min":33,"x_max":1373,"o":"m 33 0 l 446 1010 l 1373 1010 l 1373 812 l 912 812 l 912 605 l 1337 605 l 1337 406 l 912 406 l 912 198 l 1373 198 l 1373 0 l 668 0 l 668 766 l 599 766 l 301 0 l 33 0 m 269 212 l 269 398 l 810 398 l 810 212 l 269 212 z "},"B":{"ha":922,"x_min":76,"x_max":881,"o":"m 76 0 l 76 1010 l 498 1010 q 688 978 611 1010 q 803 888 764 946 q 842 755 842 831 q 818 652 842 697 q 751 577 794 607 q 653 536 709 547 l 653 526 q 766 493 714 523 q 850 409 818 463 q 881 283 881 356 q 840 137 881 201 q 720 37 799 73 q 530 0 642 0 l 76 0 m 321 197 l 472 197 q 589 227 551 197 q 626 311 626 257 q 608 378 626 350 q 556 422 590 406 q 476 437 523 437 l 321 437 l 321 197 m 321 595 l 456 595 q 527 608 496 595 q 575 647 558 621 q 593 707 593 672 q 557 787 593 758 q 460 816 521 816 l 321 816 l 321 595 z "},"C":{"ha":1056,"x_min":66,"x_max":993,"o":"m 993 644 l 747 644 q 727 713 742 682 q 686 765 711 743 q 627 798 661 787 q 551 810 592 810 q 424 774 477 810 q 343 670 371 738 q 315 505 315 602 q 344 337 315 404 q 425 235 372 269 q 549 200 477 200 q 623 211 590 200 q 682 241 656 221 q 724 290 707 261 q 747 355 740 319 l 993 354 q 955 221 987 287 q 866 103 922 156 q 729 18 810 49 q 545 -14 649 -14 q 299 47 407 -14 q 128 223 191 107 q 66 505 66 339 q 129 788 66 672 q 301 964 193 904 q 545 1024 410 1024 q 714 999 636 1024 q 851 925 792 973 q 947 805 910 876 q 993 644 984 735 z "},"Ç":{"ha":1056,"x_min":66,"x_max":993,"o":"m 993 644 l 747 644 q 727 713 742 682 q 686 765 711 743 q 627 798 661 787 q 551 810 592 810 q 424 774 477 810 q 343 670 371 738 q 315 505 315 602 q 344 337 315 404 q 425 235 372 269 q 549 200 477 200 q 623 211 590 200 q 682 241 656 221 q 724 290 707 261 q 747 355 740 319 l 993 354 q 955 221 987 287 q 866 103 922 156 q 729 18 810 49 q 545 -14 649 -14 q 299 47 407 -14 q 128 223 191 107 q 66 505 66 339 q 129 788 66 672 q 301 964 193 904 q 545 1024 410 1024 q 714 999 636 1024 q 851 925 792 973 q 947 805 910 876 q 993 644 984 735 m 492 5 l 588 5 l 581 -39 q 667 -78 635 -47 q 700 -160 700 -109 q 627 -281 701 -237 q 422 -326 553 -326 l 421 -227 q 526 -212 489 -227 q 564 -165 563 -196 q 542 -120 566 -137 q 469 -96 518 -103 l 492 5 z "},"D":{"ha":1014,"x_min":76,"x_max":948,"o":"m 450 0 l 76 0 l 76 1010 l 449 1010 q 715 950 604 1010 q 888 776 827 889 q 948 506 948 663 q 888 234 948 348 q 716 60 828 121 q 450 0 604 0 m 321 208 l 440 208 q 584 237 525 208 q 673 331 643 266 q 704 506 704 397 q 673 679 704 615 q 583 773 643 744 q 437 802 524 802 l 321 802 l 321 208 z "},"E":{"ha":857,"x_min":76,"x_max":781,"o":"m 76 0 l 76 1010 l 781 1010 l 781 812 l 321 812 l 321 605 l 745 605 l 745 406 l 321 406 l 321 198 l 781 198 l 781 0 l 76 0 z "},"È":{"ha":857,"x_min":76,"x_max":781,"o":"m 76 0 l 76 1010 l 781 1010 l 781 812 l 321 812 l 321 605 l 745 605 l 745 406 l 321 406 l 321 198 l 781 198 l 781 0 l 76 0 m 350 1106 l 201 1329 l 414 1329 l 514 1106 l 350 1106 z "},"É":{"ha":857,"x_min":76,"x_max":781,"o":"m 76 0 l 76 1010 l 781 1010 l 781 812 l 321 812 l 321 605 l 745 605 l 745 406 l 321 406 l 321 198 l 781 198 l 781 0 l 76 0 m 348 1106 l 447 1329 l 661 1329 l 512 1106 l 348 1106 z "},"Ê":{"ha":857,"x_min":76,"x_max":781,"o":"m 76 0 l 76 1010 l 781 1010 l 781 812 l 321 812 l 321 605 l 745 605 l 745 406 l 321 406 l 321 198 l 781 198 l 781 0 l 76 0 m 529 1101 l 431 1215 l 333 1101 l 131 1101 l 131 1107 l 344 1328 l 517 1328 l 730 1107 l 730 1101 l 529 1101 z "},"Ë":{"ha":857,"x_min":76,"x_max":781,"o":"m 76 0 l 76 1010 l 781 1010 l 781 812 l 321 812 l 321 605 l 745 605 l 745 406 l 321 406 l 321 198 l 781 198 l 781 0 l 76 0 m 278 1106 q 199 1138 231 1106 q 166 1214 166 1169 q 199 1290 166 1258 q 278 1321 231 1321 q 356 1290 324 1321 q 388 1214 388 1258 q 356 1138 388 1169 q 278 1106 324 1106 m 585 1106 q 506 1138 539 1106 q 473 1214 473 1169 q 506 1290 473 1258 q 585 1321 539 1321 q 664 1290 631 1321 q 696 1214 696 1258 q 664 1138 696 1169 q 585 1106 631 1106 z "},"F":{"ha":812,"x_min":76,"x_max":766,"o":"m 76 0 l 76 1010 l 766 1010 l 766 812 l 321 812 l 321 605 l 722 605 l 722 406 l 321 406 l 321 0 l 76 0 z "},"G":{"ha":1065,"x_min":66,"x_max":997,"o":"m 739 680 q 715 735 731 711 q 675 776 698 759 q 620 801 651 793 q 553 810 590 810 q 426 774 480 810 q 344 671 373 739 q 315 507 315 603 q 343 341 315 409 q 424 236 371 272 q 553 200 477 200 q 667 222 620 200 q 738 285 714 244 q 762 380 762 325 l 807 374 l 562 374 l 562 552 l 997 552 l 997 419 q 940 186 997 283 q 782 38 882 90 q 551 -14 682 -14 q 297 49 407 -14 q 127 228 188 111 q 66 504 66 344 q 103 724 66 628 q 206 888 140 821 q 360 989 272 955 q 548 1024 447 1024 q 712 999 636 1024 q 846 928 788 974 q 941 819 905 882 q 986 680 978 756 l 739 680 z "},"H":{"ha":1039,"x_min":76,"x_max":962,"o":"m 76 0 l 76 1010 l 321 1010 l 321 605 l 719 605 l 719 1010 l 962 1010 l 962 0 l 719 0 l 719 406 l 321 406 l 321 0 l 76 0 z "},"I":{"ha":397,"x_min":76,"x_max":321,"o":"m 321 1010 l 321 0 l 76 0 l 76 1010 l 321 1010 z "},"Ï":{"ha":397,"x_min":-66,"x_max":465,"o":"m 321 1010 l 321 0 l 76 0 l 76 1010 l 321 1010 m 46 1106 q -33 1138 0 1106 q -66 1214 -66 1169 q -33 1290 -66 1258 q 46 1321 0 1321 q 125 1290 92 1321 q 157 1214 157 1258 q 125 1138 157 1169 q 46 1106 92 1106 m 354 1106 q 274 1138 307 1106 q 242 1214 242 1169 q 274 1290 242 1258 q 354 1321 307 1321 q 432 1290 400 1321 q 465 1214 465 1258 q 432 1138 465 1169 q 354 1106 400 1106 z "},"Ì":{"ha":397,"x_min":-31,"x_max":321,"o":"m 321 1010 l 321 0 l 76 0 l 76 1010 l 321 1010 m 118 1106 l -31 1329 l 182 1329 l 283 1106 l 118 1106 z "},"Í":{"ha":397,"x_min":76,"x_max":429,"o":"m 321 1010 l 321 0 l 76 0 l 76 1010 l 321 1010 m 116 1106 l 216 1329 l 429 1329 l 280 1106 l 116 1106 z "},"Î":{"ha":397,"x_min":-101,"x_max":499,"o":"m 321 1010 l 321 0 l 76 0 l 76 1010 l 321 1010 m 297 1101 l 199 1215 l 102 1101 l -101 1101 l -101 1107 l 113 1328 l 286 1328 l 499 1107 l 499 1101 l 297 1101 z "},"J":{"ha":804,"x_min":24,"x_max":727,"o":"m 487 1010 l 727 1010 l 727 312 q 681 140 727 214 q 553 27 634 67 q 364 -14 471 -14 q 192 19 269 -14 q 69 122 115 52 q 24 300 24 191 l 267 300 q 282 234 269 261 q 320 192 296 206 q 378 179 344 179 q 437 194 413 179 q 474 238 461 209 q 487 312 486 268 l 487 1010 z "},"K":{"ha":975,"x_min":76,"x_max":962,"o":"m 76 0 l 76 1010 l 321 1010 l 321 583 l 334 583 l 668 1010 l 955 1010 l 597 559 l 962 0 l 670 0 l 418 397 l 321 274 l 321 0 l 76 0 z "},"L":{"ha":791,"x_min":76,"x_max":741,"o":"m 76 0 l 76 1010 l 321 1010 l 321 198 l 741 198 l 741 0 l 76 0 z "},"M":{"ha":1282,"x_min":76,"x_max":1206,"o":"m 76 1010 l 379 1010 l 635 385 l 647 385 l 904 1010 l 1206 1010 l 1206 0 l 968 0 l 968 620 l 960 620 l 717 6 l 565 6 l 323 624 l 314 624 l 314 0 l 76 0 l 76 1010 z "},"N":{"ha":1013,"x_min":76,"x_max":936,"o":"m 936 1010 l 936 0 l 729 0 l 327 583 l 321 583 l 321 0 l 76 0 l 76 1010 l 287 1010 l 684 428 l 692 428 l 692 1010 l 936 1010 z "},"Ñ":{"ha":1013,"x_min":76,"x_max":936,"o":"m 936 1010 l 936 0 l 729 0 l 327 583 l 321 583 l 321 0 l 76 0 l 76 1010 l 287 1010 l 684 428 l 692 428 l 692 1010 l 936 1010 m 369 1104 l 244 1105 q 291 1256 244 1205 q 408 1308 339 1308 q 470 1296 444 1308 q 516 1269 496 1285 q 554 1242 536 1254 q 591 1231 571 1231 q 633 1252 619 1231 q 647 1307 646 1272 l 770 1306 q 722 1154 769 1206 q 606 1102 674 1102 q 543 1113 569 1101 q 497 1140 516 1125 q 461 1167 478 1156 q 423 1179 444 1179 q 384 1159 399 1179 q 369 1104 369 1140 z "},"O":{"ha":1095,"x_min":66,"x_max":1030,"o":"m 1030 505 q 966 222 1030 338 q 792 46 902 107 q 547 -14 683 -14 q 302 47 411 -14 q 129 223 193 108 q 66 505 66 339 q 129 788 66 672 q 302 964 193 904 q 547 1024 411 1024 q 792 964 683 1024 q 966 788 902 904 q 1030 505 1030 672 m 780 505 q 752 672 780 604 q 672 775 725 740 q 547 810 620 810 q 423 775 475 810 q 343 672 370 740 q 315 505 315 604 q 343 338 315 406 q 423 235 370 270 q 547 200 475 200 q 672 235 620 200 q 752 338 725 270 q 780 505 780 406 z "},"Ö":{"ha":1095,"x_min":66,"x_max":1030,"o":"m 1030 505 q 966 222 1030 338 q 792 46 902 107 q 547 -14 683 -14 q 302 47 411 -14 q 129 223 193 108 q 66 505 66 339 q 129 788 66 672 q 302 964 193 904 q 547 1024 411 1024 q 792 964 683 1024 q 966 788 902 904 q 1030 505 1030 672 m 780 505 q 752 672 780 604 q 672 775 725 740 q 547 810 620 810 q 423 775 475 810 q 343 672 370 740 q 315 505 315 604 q 343 338 315 406 q 423 235 370 270 q 547 200 475 200 q 672 235 620 200 q 752 338 725 270 q 780 505 780 406 m 395 1106 q 315 1138 348 1106 q 283 1214 283 1169 q 315 1290 283 1258 q 395 1321 348 1321 q 473 1290 440 1321 q 505 1214 505 1258 q 473 1138 505 1169 q 395 1106 440 1106 m 702 1106 q 623 1138 656 1106 q 590 1214 590 1169 q 623 1290 590 1258 q 702 1321 656 1321 q 781 1290 748 1321 q 813 1214 813 1258 q 781 1138 813 1169 q 702 1106 748 1106 z "},"Õ":{"ha":1095,"x_min":66,"x_max":1030,"o":"m 1030 505 q 966 222 1030 338 q 792 46 902 107 q 547 -14 683 -14 q 302 47 411 -14 q 129 223 193 108 q 66 505 66 339 q 129 788 66 672 q 302 964 193 904 q 547 1024 411 1024 q 792 964 683 1024 q 966 788 902 904 q 1030 505 1030 672 m 780 505 q 752 672 780 604 q 672 775 725 740 q 547 810 620 810 q 423 775 475 810 q 343 672 370 740 q 315 505 315 604 q 343 338 315 406 q 423 235 370 270 q 547 200 475 200 q 672 235 620 200 q 752 338 725 270 q 780 505 780 406 m 410 1109 l 285 1110 q 332 1262 285 1210 q 449 1313 380 1313 q 511 1301 485 1313 q 557 1274 537 1290 q 594 1248 577 1259 q 631 1236 612 1236 q 673 1257 660 1236 q 688 1312 687 1277 l 811 1311 q 762 1160 810 1212 q 647 1107 715 1108 q 583 1118 609 1106 q 538 1145 557 1130 q 502 1172 519 1161 q 464 1184 485 1184 q 425 1164 439 1184 q 410 1109 410 1145 z "},"Ø":{"ha":1095,"x_min":66,"x_max":1030,"o":"m 234 -51 l 130 19 l 861 1059 l 964 989 l 234 -51 m 1030 505 q 966 222 1030 338 q 792 46 902 107 q 547 -14 683 -14 q 302 47 411 -14 q 129 223 193 108 q 66 505 66 339 q 129 788 66 672 q 302 964 193 904 q 547 1024 411 1024 q 792 964 683 1024 q 966 788 902 904 q 1030 505 1030 672 m 780 505 q 752 672 780 604 q 672 775 725 740 q 547 810 620 810 q 423 775 475 810 q 343 672 370 740 q 315 505 315 604 q 343 338 315 406 q 423 235 370 270 q 547 200 475 200 q 672 235 620 200 q 752 338 725 270 q 780 505 780 406 z "},"Ò":{"ha":1095,"x_min":66,"x_max":1030,"o":"m 1030 505 q 966 222 1030 338 q 792 46 902 107 q 547 -14 683 -14 q 302 47 411 -14 q 129 223 193 108 q 66 505 66 339 q 129 788 66 672 q 302 964 193 904 q 547 1024 411 1024 q 792 964 683 1024 q 966 788 902 904 q 1030 505 1030 672 m 780 505 q 752 672 780 604 q 672 775 725 740 q 547 810 620 810 q 423 775 475 810 q 343 672 370 740 q 315 505 315 604 q 343 338 315 406 q 423 235 370 270 q 547 200 475 200 q 672 235 620 200 q 752 338 725 270 q 780 505 780 406 m 467 1106 l 318 1329 l 531 1329 l 631 1106 l 467 1106 z "},"Ó":{"ha":1095,"x_min":66,"x_max":1030,"o":"m 1030 505 q 966 222 1030 338 q 792 46 902 107 q 547 -14 683 -14 q 302 47 411 -14 q 129 223 193 108 q 66 505 66 339 q 129 788 66 672 q 302 964 193 904 q 547 1024 411 1024 q 792 964 683 1024 q 966 788 902 904 q 1030 505 1030 672 m 780 505 q 752 672 780 604 q 672 775 725 740 q 547 810 620 810 q 423 775 475 810 q 343 672 370 740 q 315 505 315 604 q 343 338 315 406 q 423 235 370 270 q 547 200 475 200 q 672 235 620 200 q 752 338 725 270 q 780 505 780 406 m 465 1106 l 564 1329 l 778 1329 l 629 1106 l 465 1106 z "},"Ô":{"ha":1095,"x_min":66,"x_max":1030,"o":"m 1030 505 q 966 222 1030 338 q 792 46 902 107 q 547 -14 683 -14 q 302 47 411 -14 q 129 223 193 108 q 66 505 66 339 q 129 788 66 672 q 302 964 193 904 q 547 1024 411 1024 q 792 964 683 1024 q 966 788 902 904 q 1030 505 1030 672 m 780 505 q 752 672 780 604 q 672 775 725 740 q 547 810 620 810 q 423 775 475 810 q 343 672 370 740 q 315 505 315 604 q 343 338 315 406 q 423 235 370 270 q 547 200 475 200 q 672 235 620 200 q 752 338 725 270 q 780 505 780 406 m 646 1101 l 547 1215 l 450 1101 l 248 1101 l 248 1107 l 461 1328 l 634 1328 l 847 1107 l 847 1101 l 646 1101 z "},"Œ":{"ha":1444,"x_min":66,"x_max":1367,"o":"m 529 0 q 293 56 398 0 q 127 224 188 112 q 66 504 66 336 q 127 784 66 672 q 293 954 188 897 q 529 1010 398 1010 l 1367 1010 l 1367 812 l 907 812 l 907 605 l 1331 605 l 1331 406 l 907 406 l 907 198 l 1367 198 l 1367 0 l 529 0 m 663 198 l 663 812 l 529 812 q 417 781 466 812 q 340 683 367 751 q 312 504 312 616 q 340 324 312 391 q 417 228 367 257 q 529 198 466 198 l 663 198 z "},"P":{"ha":906,"x_min":76,"x_max":862,"o":"m 76 0 l 76 1010 l 494 1010 q 690 966 607 1010 q 817 843 772 922 q 862 660 862 764 q 817 478 862 556 q 687 357 771 400 q 486 314 602 314 l 229 314 l 229 506 l 441 506 q 533 525 496 506 q 590 579 571 545 q 609 660 609 614 q 590 742 609 707 q 533 795 571 776 q 441 813 496 813 l 321 813 l 321 0 l 76 0 z "},"Q":{"ha":1097,"x_min":66,"x_max":1030,"o":"m 463 363 l 660 363 l 744 256 l 854 130 l 1023 -79 l 802 -79 l 684 63 l 614 163 l 463 363 m 1030 505 q 966 222 1030 338 q 792 46 902 107 q 547 -14 683 -14 q 302 47 411 -14 q 129 223 193 108 q 66 505 66 339 q 129 788 66 672 q 302 964 193 904 q 547 1024 411 1024 q 792 964 683 1024 q 966 788 902 904 q 1030 505 1030 672 m 780 505 q 752 672 780 604 q 672 775 725 740 q 547 810 620 810 q 423 775 475 810 q 343 672 370 740 q 315 505 315 604 q 343 338 315 406 q 423 235 370 270 q 547 200 475 200 q 672 235 620 200 q 752 338 725 270 q 780 505 780 406 z "},"R":{"ha":919,"x_min":76,"x_max":897,"o":"m 76 0 l 76 1010 l 494 1010 q 690 969 607 1010 q 817 853 772 929 q 862 674 862 777 q 816 495 862 569 q 686 384 770 422 q 486 346 602 346 l 222 346 l 222 538 l 441 538 q 533 553 496 538 q 590 597 571 567 q 609 674 609 627 q 590 751 609 721 q 533 798 571 782 q 441 813 496 813 l 321 813 l 321 0 l 76 0 m 645 462 l 897 0 l 630 0 l 384 462 l 645 462 z "},"S":{"ha":917,"x_min":47,"x_max":870,"o":"m 622 707 q 579 792 618 762 q 469 822 540 822 q 390 810 421 822 q 342 776 358 798 q 326 727 327 755 q 335 687 325 704 q 365 657 345 670 q 412 634 384 644 q 474 617 439 624 l 561 597 q 693 553 636 581 q 790 489 751 526 q 849 402 829 451 q 870 293 870 354 q 822 129 870 197 q 684 24 774 60 q 469 -13 595 -13 q 248 25 342 -13 q 101 141 153 63 q 47 336 49 218 l 281 336 q 307 255 284 288 q 371 206 330 222 q 466 189 412 189 q 550 202 515 189 q 603 239 584 216 q 622 293 622 263 q 605 343 622 322 q 552 378 587 363 q 461 406 516 393 l 355 431 q 148 528 224 461 q 73 710 73 595 q 124 874 73 804 q 264 984 175 945 q 469 1024 354 1024 q 673 984 586 1024 q 807 873 760 945 q 856 707 855 801 l 622 707 z "},"T":{"ha":941,"x_min":43,"x_max":897,"o":"m 43 812 l 43 1010 l 897 1010 l 897 812 l 591 812 l 591 0 l 350 0 l 350 812 l 43 812 z "},"U":{"ha":1008,"x_min":76,"x_max":931,"o":"m 688 1010 l 931 1010 l 931 359 q 877 162 931 246 q 727 33 824 78 q 504 -13 631 -13 q 279 33 375 -13 q 130 162 183 78 q 76 359 76 246 l 76 1010 l 321 1010 l 321 380 q 344 287 321 327 q 408 222 366 246 q 504 199 449 199 q 600 222 559 199 q 664 287 641 246 q 688 380 688 327 l 688 1010 z "},"Ù":{"ha":1008,"x_min":76,"x_max":931,"o":"m 688 1010 l 931 1010 l 931 359 q 877 162 931 246 q 727 33 824 78 q 504 -13 631 -13 q 279 33 375 -13 q 130 162 183 78 q 76 359 76 246 l 76 1010 l 321 1010 l 321 380 q 344 287 321 327 q 408 222 366 246 q 504 199 449 199 q 600 222 559 199 q 664 287 641 246 q 688 380 688 327 l 688 1010 m 423 1106 l 274 1329 l 487 1329 l 587 1106 l 423 1106 z "},"Ú":{"ha":1008,"x_min":76,"x_max":931,"o":"m 688 1010 l 931 1010 l 931 359 q 877 162 931 246 q 727 33 824 78 q 504 -13 631 -13 q 279 33 375 -13 q 130 162 183 78 q 76 359 76 246 l 76 1010 l 321 1010 l 321 380 q 344 287 321 327 q 408 222 366 246 q 504 199 449 199 q 600 222 559 199 q 664 287 641 246 q 688 380 688 327 l 688 1010 m 421 1106 l 520 1329 l 734 1329 l 585 1106 l 421 1106 z "},"Û":{"ha":1008,"x_min":76,"x_max":931,"o":"m 688 1010 l 931 1010 l 931 359 q 877 162 931 246 q 727 33 824 78 q 504 -13 631 -13 q 279 33 375 -13 q 130 162 183 78 q 76 359 76 246 l 76 1010 l 321 1010 l 321 380 q 344 287 321 327 q 408 222 366 246 q 504 199 449 199 q 600 222 559 199 q 664 287 641 246 q 688 380 688 327 l 688 1010 m 602 1101 l 504 1215 l 406 1101 l 204 1101 l 204 1107 l 417 1328 l 590 1328 l 803 1107 l 803 1101 l 602 1101 z "},"Ü":{"ha":1008,"x_min":76,"x_max":931,"o":"m 688 1010 l 931 1010 l 931 359 q 877 162 931 246 q 727 33 824 78 q 504 -13 631 -13 q 279 33 375 -13 q 130 162 183 78 q 76 359 76 246 l 76 1010 l 321 1010 l 321 380 q 344 287 321 327 q 408 222 366 246 q 504 199 449 199 q 600 222 559 199 q 664 287 641 246 q 688 380 688 327 l 688 1010 m 351 1106 q 272 1138 304 1106 q 239 1214 239 1169 q 272 1290 239 1258 q 351 1321 304 1321 q 429 1290 397 1321 q 461 1214 461 1258 q 429 1138 461 1169 q 351 1106 397 1106 m 658 1106 q 579 1138 612 1106 q 546 1214 546 1169 q 579 1290 546 1258 q 658 1321 612 1321 q 737 1290 704 1321 q 769 1214 769 1258 q 737 1138 769 1169 q 658 1106 704 1106 z "},"V":{"ha":1072,"x_min":33,"x_max":1039,"o":"m 306 1010 l 532 270 l 540 270 l 766 1010 l 1039 1010 l 698 0 l 373 0 l 33 1010 l 306 1010 z "},"W":{"ha":1479,"x_min":25,"x_max":1454,"o":"m 319 0 l 25 1010 l 294 1010 l 447 348 l 455 348 l 629 1010 l 849 1010 l 1023 347 l 1032 347 l 1185 1010 l 1454 1010 l 1161 0 l 925 0 l 743 613 l 735 613 l 553 0 l 319 0 z "},"X":{"ha":1026,"x_min":40,"x_max":985,"o":"m 324 1010 l 508 691 l 516 691 l 702 1010 l 976 1010 l 671 505 l 985 0 l 705 0 l 516 323 l 508 323 l 319 0 l 40 0 l 354 505 l 48 1010 l 324 1010 z "},"Y":{"ha":1034,"x_min":26,"x_max":1008,"o":"m 26 1010 l 299 1010 l 512 587 l 521 587 l 735 1010 l 1008 1010 l 638 337 l 638 0 l 396 0 l 396 337 l 26 1010 z "},"Ý":{"ha":1034,"x_min":26,"x_max":1008,"o":"m 26 1010 l 299 1010 l 512 587 l 521 587 l 735 1010 l 1008 1010 l 638 337 l 638 0 l 396 0 l 396 337 l 26 1010 m 434 1106 l 533 1329 l 747 1329 l 598 1106 l 434 1106 z "},"Z":{"ha":945,"x_min":73,"x_max":872,"o":"m 73 0 l 73 139 l 564 812 l 73 812 l 73 1010 l 872 1010 l 872 871 l 382 198 l 872 198 l 872 0 l 73 0 z "},"a":{"ha":813,"x_min":41,"x_max":743,"o":"m 290 -13 q 162 12 218 -13 q 73 86 106 36 q 41 210 41 135 q 63 317 41 273 q 124 387 85 360 q 214 428 163 414 q 323 447 265 442 q 427 460 387 453 q 484 479 466 467 q 502 515 502 492 l 502 517 q 476 576 502 555 q 405 597 450 597 q 328 576 358 597 q 291 519 299 555 l 69 527 q 120 650 79 596 q 234 736 161 705 q 407 767 306 767 q 541 750 480 767 q 648 701 602 733 q 718 622 693 669 q 743 515 743 575 l 743 0 l 516 0 l 516 106 l 510 106 q 458 40 490 67 q 385 0 427 14 q 290 -13 343 -13 m 364 145 q 435 161 403 145 q 485 204 466 177 q 504 269 504 232 l 504 341 q 479 331 493 336 q 447 323 464 327 q 411 316 430 319 q 376 311 393 313 q 318 294 342 305 q 282 265 294 283 q 269 222 269 247 q 296 165 269 184 q 364 145 323 145 z "},"á":{"ha":813,"x_min":41,"x_max":743,"o":"m 290 -13 q 162 12 218 -13 q 73 86 106 36 q 41 210 41 135 q 63 317 41 273 q 124 387 85 360 q 214 428 163 414 q 323 447 265 442 q 427 460 387 453 q 484 479 466 467 q 502 515 502 492 l 502 517 q 476 576 502 555 q 405 597 450 597 q 328 576 358 597 q 291 519 299 555 l 69 527 q 120 650 79 596 q 234 736 161 705 q 407 767 306 767 q 541 750 480 767 q 648 701 602 733 q 718 622 693 669 q 743 515 743 575 l 743 0 l 516 0 l 516 106 l 510 106 q 458 40 490 67 q 385 0 427 14 q 290 -13 343 -13 m 364 145 q 435 161 403 145 q 485 204 466 177 q 504 269 504 232 l 504 341 q 479 331 493 336 q 447 323 464 327 q 411 316 430 319 q 376 311 393 313 q 318 294 342 305 q 282 265 294 283 q 269 222 269 247 q 296 165 269 184 q 364 145 323 145 m 332 854 l 432 1076 l 646 1076 l 497 854 l 332 854 z "},"â":{"ha":813,"x_min":41,"x_max":743,"o":"m 290 -13 q 162 12 218 -13 q 73 86 106 36 q 41 210 41 135 q 63 317 41 273 q 124 387 85 360 q 214 428 163 414 q 323 447 265 442 q 427 460 387 453 q 484 479 466 467 q 502 515 502 492 l 502 517 q 476 576 502 555 q 405 597 450 597 q 328 576 358 597 q 291 519 299 555 l 69 527 q 120 650 79 596 q 234 736 161 705 q 407 767 306 767 q 541 750 480 767 q 648 701 602 733 q 718 622 693 669 q 743 515 743 575 l 743 0 l 516 0 l 516 106 l 510 106 q 458 40 490 67 q 385 0 427 14 q 290 -13 343 -13 m 364 145 q 435 161 403 145 q 485 204 466 177 q 504 269 504 232 l 504 341 q 479 331 493 336 q 447 323 464 327 q 411 316 430 319 q 376 311 393 313 q 318 294 342 305 q 282 265 294 283 q 269 222 269 247 q 296 165 269 184 q 364 145 323 145 m 513 848 l 415 963 l 318 848 l 115 848 l 115 855 l 329 1076 l 502 1076 l 715 855 l 715 848 l 513 848 z "},"ä":{"ha":813,"x_min":41,"x_max":743,"o":"m 290 -13 q 162 12 218 -13 q 73 86 106 36 q 41 210 41 135 q 63 317 41 273 q 124 387 85 360 q 214 428 163 414 q 323 447 265 442 q 427 460 387 453 q 484 479 466 467 q 502 515 502 492 l 502 517 q 476 576 502 555 q 405 597 450 597 q 328 576 358 597 q 291 519 299 555 l 69 527 q 120 650 79 596 q 234 736 161 705 q 407 767 306 767 q 541 750 480 767 q 648 701 602 733 q 718 622 693 669 q 743 515 743 575 l 743 0 l 516 0 l 516 106 l 510 106 q 458 40 490 67 q 385 0 427 14 q 290 -13 343 -13 m 364 145 q 435 161 403 145 q 485 204 466 177 q 504 269 504 232 l 504 341 q 479 331 493 336 q 447 323 464 327 q 411 316 430 319 q 376 311 393 313 q 318 294 342 305 q 282 265 294 283 q 269 222 269 247 q 296 165 269 184 q 364 145 323 145 m 262 854 q 183 885 216 854 q 150 961 150 917 q 183 1037 150 1006 q 262 1068 216 1068 q 341 1037 308 1068 q 373 961 373 1006 q 341 885 373 917 q 262 854 308 854 m 570 854 q 491 885 524 854 q 458 961 458 917 q 491 1037 458 1006 q 570 1068 524 1068 q 648 1037 616 1068 q 681 961 681 1006 q 648 885 681 917 q 570 854 616 854 z "},"à":{"ha":813,"x_min":41,"x_max":743,"o":"m 290 -13 q 162 12 218 -13 q 73 86 106 36 q 41 210 41 135 q 63 317 41 273 q 124 387 85 360 q 214 428 163 414 q 323 447 265 442 q 427 460 387 453 q 484 479 466 467 q 502 515 502 492 l 502 517 q 476 576 502 555 q 405 597 450 597 q 328 576 358 597 q 291 519 299 555 l 69 527 q 120 650 79 596 q 234 736 161 705 q 407 767 306 767 q 541 750 480 767 q 648 701 602 733 q 718 622 693 669 q 743 515 743 575 l 743 0 l 516 0 l 516 106 l 510 106 q 458 40 490 67 q 385 0 427 14 q 290 -13 343 -13 m 364 145 q 435 161 403 145 q 485 204 466 177 q 504 269 504 232 l 504 341 q 479 331 493 336 q 447 323 464 327 q 411 316 430 319 q 376 311 393 313 q 318 294 342 305 q 282 265 294 283 q 269 222 269 247 q 296 165 269 184 q 364 145 323 145 m 335 854 l 185 1076 l 399 1076 l 499 854 l 335 854 z "},"å":{"ha":813,"x_min":41,"x_max":743,"o":"m 290 -13 q 162 12 218 -13 q 73 86 106 36 q 41 210 41 135 q 63 317 41 273 q 124 387 85 360 q 214 428 163 414 q 323 447 265 442 q 427 460 387 453 q 484 479 466 467 q 502 515 502 492 l 502 517 q 476 576 502 555 q 405 597 450 597 q 328 576 358 597 q 291 519 299 555 l 69 527 q 120 650 79 596 q 234 736 161 705 q 407 767 306 767 q 541 750 480 767 q 648 701 602 733 q 718 622 693 669 q 743 515 743 575 l 743 0 l 516 0 l 516 106 l 510 106 q 458 40 490 67 q 385 0 427 14 q 290 -13 343 -13 m 364 145 q 435 161 403 145 q 485 204 466 177 q 504 269 504 232 l 504 341 q 479 331 493 336 q 447 323 464 327 q 411 316 430 319 q 376 311 393 313 q 318 294 342 305 q 282 265 294 283 q 269 222 269 247 q 296 165 269 184 q 364 145 323 145 m 415 837 q 332 859 370 837 q 273 917 295 881 q 250 997 250 953 q 273 1078 250 1042 q 332 1137 295 1115 q 415 1159 370 1159 q 499 1137 461 1159 q 558 1078 536 1115 q 581 997 581 1042 q 558 917 581 953 q 499 859 536 881 q 415 837 461 837 m 415 930 q 466 950 445 930 q 486 997 486 970 q 466 1046 486 1025 q 415 1066 445 1066 q 365 1045 386 1065 q 344 997 344 1025 q 365 950 344 970 q 415 930 386 930 z "},"ã":{"ha":813,"x_min":41,"x_max":743,"o":"m 290 -13 q 162 12 218 -13 q 73 86 106 36 q 41 210 41 135 q 63 317 41 273 q 124 387 85 360 q 214 428 163 414 q 323 447 265 442 q 427 460 387 453 q 484 479 466 467 q 502 515 502 492 l 502 517 q 476 576 502 555 q 405 597 450 597 q 328 576 358 597 q 291 519 299 555 l 69 527 q 120 650 79 596 q 234 736 161 705 q 407 767 306 767 q 541 750 480 767 q 648 701 602 733 q 718 622 693 669 q 743 515 743 575 l 743 0 l 516 0 l 516 106 l 510 106 q 458 40 490 67 q 385 0 427 14 q 290 -13 343 -13 m 364 145 q 435 161 403 145 q 485 204 466 177 q 504 269 504 232 l 504 341 q 479 331 493 336 q 447 323 464 327 q 411 316 430 319 q 376 311 393 313 q 318 294 342 305 q 282 265 294 283 q 269 222 269 247 q 296 165 269 184 q 364 145 323 145 m 278 851 l 152 852 q 200 1004 152 952 q 316 1055 248 1055 q 379 1044 353 1055 q 424 1017 404 1032 q 462 990 444 1001 q 499 978 479 978 q 541 999 527 979 q 555 1054 554 1019 l 679 1053 q 630 902 677 954 q 514 849 582 850 q 451 861 477 849 q 406 888 425 872 q 369 915 387 903 q 331 926 352 926 q 292 907 307 926 q 278 851 278 887 z "},"æ":{"ha":1264,"x_min":41,"x_max":1216,"o":"m 874 -14 q 698 26 775 -14 q 588 147 620 67 l 572 616 q 691 732 622 696 q 850 767 761 767 q 998 742 930 767 q 1114 668 1065 717 q 1189 546 1163 618 q 1216 381 1216 474 l 1216 321 l 579 321 l 579 461 l 992 461 q 974 529 991 499 q 925 576 956 559 q 855 593 894 593 q 782 575 814 593 q 731 526 750 557 q 712 457 713 495 l 712 314 q 730 233 712 268 q 782 179 748 198 q 862 160 815 160 q 920 169 893 160 q 965 195 946 178 q 993 237 983 212 l 1214 231 q 1154 101 1200 156 q 1035 16 1107 46 q 874 -14 964 -14 m 364 145 q 435 161 403 145 q 485 204 466 177 q 504 269 504 232 l 504 341 q 479 331 493 336 q 447 323 464 327 q 411 316 430 319 q 376 311 393 313 q 318 294 342 305 q 282 265 294 283 q 269 222 269 247 q 296 165 269 184 q 364 145 323 145 m 306 -13 q 166 12 225 -13 q 73 86 106 36 q 41 210 41 136 q 63 316 41 273 q 125 387 85 360 q 215 428 164 414 q 323 447 265 442 q 427 460 388 453 q 484 480 466 467 q 502 515 502 492 l 502 517 q 476 576 502 556 q 405 597 450 597 q 328 576 358 597 q 291 519 299 555 l 69 527 q 120 650 79 596 q 234 736 161 705 q 412 767 307 767 q 482 761 449 767 q 544 741 515 754 q 595 705 573 727 q 630 654 617 684 l 611 119 l 597 119 q 530 47 575 77 q 428 2 486 18 q 306 -13 370 -13 z "},"b":{"ha":889,"x_min":76,"x_max":838,"o":"m 76 0 l 76 1010 l 318 1010 l 318 628 l 323 628 q 365 694 337 662 q 435 747 392 727 q 537 767 477 767 q 685 726 616 767 q 796 598 754 685 q 838 378 838 512 q 798 163 838 250 q 688 33 757 76 q 536 -11 619 -11 q 436 8 478 -11 q 366 57 395 27 q 323 123 338 88 l 315 123 l 315 0 l 76 0 m 313 379 q 329 272 313 318 q 377 202 346 227 q 452 177 408 177 q 528 202 497 177 q 575 272 559 227 q 591 379 591 318 q 575 485 591 440 q 528 554 559 530 q 452 579 497 579 q 377 555 408 579 q 329 486 346 531 q 313 379 313 441 z "},"c":{"ha":829,"x_min":47,"x_max":782,"o":"m 430 -14 q 225 35 310 -14 q 93 172 139 84 q 47 376 47 260 q 93 581 47 493 q 225 718 140 669 q 430 767 311 767 q 613 729 535 767 q 735 622 691 691 q 782 460 779 553 l 556 460 q 517 551 549 518 q 433 584 485 584 q 360 561 391 584 q 310 491 328 537 q 293 379 293 446 q 310 266 293 312 q 360 196 328 219 q 433 173 391 173 q 492 187 467 173 q 535 229 518 201 q 556 297 552 257 l 782 297 q 735 133 778 203 q 614 24 692 63 q 430 -14 537 -14 z "},"ç":{"ha":829,"x_min":47,"x_max":782,"o":"m 430 -14 q 225 35 310 -14 q 93 172 139 84 q 47 376 47 260 q 93 581 47 493 q 225 718 140 669 q 430 767 311 767 q 613 729 535 767 q 735 622 691 691 q 782 460 779 553 l 556 460 q 517 551 549 518 q 433 584 485 584 q 360 561 391 584 q 310 491 328 537 q 293 379 293 446 q 310 266 293 312 q 360 196 328 219 q 433 173 391 173 q 492 187 467 173 q 535 229 518 201 q 556 297 552 257 l 782 297 q 735 133 778 203 q 614 24 692 63 q 430 -14 537 -14 m 383 4 l 479 4 l 472 -40 q 558 -80 526 -48 q 591 -161 591 -111 q 518 -283 592 -238 q 313 -327 444 -327 l 312 -228 q 417 -213 380 -228 q 455 -167 454 -198 q 433 -121 457 -138 q 360 -98 409 -104 l 383 4 z "},"d":{"ha":889,"x_min":50,"x_max":812,"o":"m 353 -11 q 201 33 269 -11 q 91 163 132 76 q 50 378 50 250 q 93 598 50 512 q 204 726 135 685 q 352 767 273 767 q 454 747 412 767 q 524 694 497 727 q 566 628 552 662 l 571 628 l 571 1010 l 812 1010 l 812 0 l 574 0 l 574 123 l 566 123 q 523 57 551 88 q 453 8 495 27 q 353 -11 410 -11 m 437 177 q 512 202 481 177 q 560 272 543 227 q 577 379 577 318 q 560 486 577 441 q 512 555 544 531 q 437 579 481 579 q 361 554 392 579 q 314 485 330 530 q 298 379 298 440 q 314 272 298 318 q 361 202 330 227 q 437 177 392 177 z "},"e":{"ha":837,"x_min":47,"x_max":790,"o":"m 431 -14 q 226 33 312 -14 q 93 167 140 80 q 47 376 47 255 q 94 581 47 493 q 224 718 140 669 q 423 767 309 767 q 571 742 504 767 q 687 668 638 717 q 763 546 736 618 q 790 381 790 474 l 790 321 l 132 321 l 132 461 l 566 461 q 547 529 565 499 q 499 576 530 559 q 428 593 468 593 q 356 575 388 593 q 305 527 324 557 q 285 457 286 496 l 285 314 q 303 233 285 268 q 355 179 322 198 q 435 160 389 160 q 493 169 467 160 q 538 195 519 178 q 566 237 557 212 l 788 231 q 727 101 774 156 q 605 16 681 46 q 431 -14 530 -14 z "},"ë":{"ha":837,"x_min":47,"x_max":790,"o":"m 431 -14 q 226 33 312 -14 q 93 167 140 80 q 47 376 47 255 q 94 581 47 493 q 224 718 140 669 q 423 767 309 767 q 571 742 504 767 q 687 668 638 717 q 763 546 736 618 q 790 381 790 474 l 790 321 l 132 321 l 132 461 l 566 461 q 547 529 565 499 q 499 576 530 559 q 428 593 468 593 q 356 575 388 593 q 305 527 324 557 q 285 457 286 496 l 285 314 q 303 233 285 268 q 355 179 322 198 q 435 160 389 160 q 493 169 467 160 q 538 195 519 178 q 566 237 557 212 l 788 231 q 727 101 774 156 q 605 16 681 46 q 431 -14 530 -14 m 266 854 q 187 885 219 854 q 154 961 154 917 q 187 1037 154 1006 q 266 1068 219 1068 q 344 1037 312 1068 q 376 961 376 1006 q 344 885 376 917 q 266 854 312 854 m 574 854 q 494 885 527 854 q 462 961 462 917 q 494 1037 462 1006 q 574 1068 527 1068 q 652 1037 619 1068 q 684 961 684 1006 q 652 885 684 917 q 574 854 619 854 z "},"è":{"ha":837,"x_min":47,"x_max":790,"o":"m 431 -14 q 226 33 312 -14 q 93 167 140 80 q 47 376 47 255 q 94 581 47 493 q 224 718 140 669 q 423 767 309 767 q 571 742 504 767 q 687 668 638 717 q 763 546 736 618 q 790 381 790 474 l 790 321 l 132 321 l 132 461 l 566 461 q 547 529 565 499 q 499 576 530 559 q 428 593 468 593 q 356 575 388 593 q 305 527 324 557 q 285 457 286 496 l 285 314 q 303 233 285 268 q 355 179 322 198 q 435 160 389 160 q 493 169 467 160 q 538 195 519 178 q 566 237 557 212 l 788 231 q 727 101 774 156 q 605 16 681 46 q 431 -14 530 -14 m 338 854 l 189 1076 l 402 1076 l 503 854 l 338 854 z "},"é":{"ha":837,"x_min":47,"x_max":790,"o":"m 431 -14 q 226 33 312 -14 q 93 167 140 80 q 47 376 47 255 q 94 581 47 493 q 224 718 140 669 q 423 767 309 767 q 571 742 504 767 q 687 668 638 717 q 763 546 736 618 q 790 381 790 474 l 790 321 l 132 321 l 132 461 l 566 461 q 547 529 565 499 q 499 576 530 559 q 428 593 468 593 q 356 575 388 593 q 305 527 324 557 q 285 457 286 496 l 285 314 q 303 233 285 268 q 355 179 322 198 q 435 160 389 160 q 493 169 467 160 q 538 195 519 178 q 566 237 557 212 l 788 231 q 727 101 774 156 q 605 16 681 46 q 431 -14 530 -14 m 336 854 l 436 1076 l 649 1076 l 500 854 l 336 854 z "},"ê":{"ha":837,"x_min":47,"x_max":790,"o":"m 431 -14 q 226 33 312 -14 q 93 167 140 80 q 47 376 47 255 q 94 581 47 493 q 224 718 140 669 q 423 767 309 767 q 571 742 504 767 q 687 668 638 717 q 763 546 736 618 q 790 381 790 474 l 790 321 l 132 321 l 132 461 l 566 461 q 547 529 565 499 q 499 576 530 559 q 428 593 468 593 q 356 575 388 593 q 305 527 324 557 q 285 457 286 496 l 285 314 q 303 233 285 268 q 355 179 322 198 q 435 160 389 160 q 493 169 467 160 q 538 195 519 178 q 566 237 557 212 l 788 231 q 727 101 774 156 q 605 16 681 46 q 431 -14 530 -14 m 517 848 l 419 963 l 321 848 l 119 848 l 119 855 l 332 1076 l 506 1076 l 719 855 l 719 848 l 517 848 z "},"f":{"ha":547,"x_min":20,"x_max":543,"o":"m 507 758 l 507 580 l 20 580 l 20 758 l 507 758 m 121 0 l 121 796 q 154 942 121 884 q 246 1029 187 1000 q 382 1057 305 1057 q 477 1050 432 1057 q 543 1036 521 1042 l 505 860 q 472 867 491 864 q 436 870 453 870 q 378 851 394 870 q 363 800 363 833 l 363 0 l 121 0 z "},"g":{"ha":891,"x_min":50,"x_max":814,"o":"m 430 -300 q 245 -270 322 -300 q 124 -187 168 -240 q 71 -69 80 -135 l 299 -56 q 323 -97 306 -79 q 369 -123 341 -114 q 436 -133 398 -133 q 536 -103 497 -133 q 576 -1 576 -74 l 576 132 l 568 132 q 524 70 553 97 q 452 26 495 42 q 353 10 409 10 q 201 49 270 10 q 91 169 133 88 q 50 380 50 251 q 93 599 50 512 q 204 726 135 685 q 352 767 273 767 q 454 747 412 767 q 525 694 497 727 q 567 628 552 662 l 574 628 l 574 758 l 814 758 l 814 -3 q 765 -165 814 -99 q 630 -266 717 -231 q 430 -300 544 -300 m 437 186 q 512 209 481 186 q 560 276 543 232 q 577 380 577 319 q 560 486 577 441 q 512 555 544 531 q 437 579 481 579 q 361 554 392 579 q 314 485 330 530 q 298 380 298 440 q 314 276 298 319 q 361 209 330 232 q 437 186 392 186 z "},"h":{"ha":882,"x_min":76,"x_max":809,"o":"m 318 432 l 318 0 l 76 0 l 76 1010 l 310 1010 l 310 618 l 318 618 q 402 728 344 689 q 545 767 461 767 q 685 732 625 767 q 777 633 744 697 q 809 483 809 569 l 809 0 l 568 0 l 568 436 q 536 534 568 499 q 446 570 504 570 q 379 553 408 570 q 334 506 350 537 q 318 432 318 475 z "},"i":{"ha":394,"x_min":73,"x_max":321,"o":"m 76 0 l 76 758 l 318 758 l 318 0 l 76 0 m 197 846 q 110 880 146 846 q 73 961 73 913 q 110 1042 73 1009 q 197 1076 146 1076 q 285 1042 249 1076 q 321 961 321 1009 q 285 880 321 913 q 197 846 249 846 z "},"ı":{"ha":394,"x_min":76,"x_max":318,"o":"m 76 0 l 76 758 l 318 758 l 318 0 l 76 0 z "},"ï":{"ha":394,"x_min":-68,"x_max":463,"o":"m 76 0 l 76 758 l 318 758 l 318 0 l 76 0 m 44 854 q -35 885 -2 854 q -68 961 -68 917 q -35 1037 -68 1006 q 44 1068 -2 1068 q 123 1037 90 1068 q 155 961 155 1006 q 123 885 155 917 q 44 854 90 854 m 352 854 q 273 885 305 854 q 240 961 240 917 q 273 1037 240 1006 q 352 1068 305 1068 q 430 1037 398 1068 q 463 961 463 1006 q 430 885 463 917 q 352 854 398 854 z "},"ì":{"ha":394,"x_min":-33,"x_max":318,"o":"m 76 0 l 76 758 l 318 758 l 318 0 l 76 0 m 116 854 l -33 1076 l 181 1076 l 281 854 l 116 854 z "},"í":{"ha":394,"x_min":76,"x_max":427,"o":"m 76 0 l 76 758 l 318 758 l 318 0 l 76 0 m 114 854 l 214 1076 l 427 1076 l 278 854 l 114 854 z "},"î":{"ha":394,"x_min":-103,"x_max":497,"o":"m 76 0 l 76 758 l 318 758 l 318 0 l 76 0 m 295 848 l 197 963 l 100 848 l -103 848 l -103 855 l 111 1076 l 284 1076 l 497 855 l 497 848 l 295 848 z "},"j":{"ha":394,"x_min":-41,"x_max":321,"o":"m 76 758 l 318 758 l 318 -32 q 279 -181 318 -125 q 172 -260 241 -236 q 7 -284 102 -284 q -17 -284 -5 -284 q -41 -283 -28 -283 l -41 -100 q -26 -101 -33 -101 q -12 -102 -19 -102 q 57 -83 38 -102 q 76 -27 76 -65 l 76 758 m 197 846 q 109 880 146 846 q 73 961 73 913 q 109 1042 73 1009 q 197 1076 146 1076 q 284 1042 248 1076 q 321 961 321 1009 q 284 880 321 913 q 197 846 248 846 z "},"k":{"ha":825,"x_min":76,"x_max":826,"o":"m 294 199 l 295 486 l 328 486 l 542 758 l 815 758 l 498 369 l 435 369 l 294 199 m 76 0 l 76 1010 l 318 1010 l 318 0 l 76 0 m 547 0 l 349 315 l 508 486 l 826 0 l 547 0 z "},"l":{"ha":394,"x_min":76,"x_max":318,"o":"m 318 1010 l 318 0 l 76 0 l 76 1010 l 318 1010 z "},"m":{"ha":1286,"x_min":76,"x_max":1213,"o":"m 76 0 l 76 758 l 306 758 l 306 618 l 314 618 q 394 727 338 688 q 528 767 450 767 q 663 727 607 767 q 735 618 720 687 l 743 618 q 826 727 764 686 q 971 767 887 767 q 1146 699 1079 767 q 1213 510 1213 630 l 1213 0 l 972 0 l 972 455 q 943 541 972 511 q 867 571 913 571 q 789 539 817 571 q 761 452 761 507 l 761 0 l 529 0 l 529 457 q 500 541 529 510 q 425 571 472 571 q 369 556 393 571 q 331 513 345 541 q 318 448 318 486 l 318 0 l 76 0 z "},"n":{"ha":881,"x_min":76,"x_max":808,"o":"m 318 432 l 318 0 l 76 0 l 76 758 l 306 758 l 306 618 l 314 618 q 400 728 339 688 q 545 767 461 767 q 683 732 624 767 q 775 632 742 696 q 807 483 808 568 l 807 0 l 566 0 l 566 436 q 534 534 567 499 q 445 570 502 570 q 378 553 407 570 q 334 506 349 537 q 318 432 318 475 z "},"ñ":{"ha":881,"x_min":76,"x_max":808,"o":"m 318 432 l 318 0 l 76 0 l 76 758 l 306 758 l 306 618 l 314 618 q 400 728 339 688 q 545 767 461 767 q 683 732 624 767 q 775 632 742 696 q 807 483 808 568 l 807 0 l 566 0 l 566 436 q 534 534 567 499 q 445 570 502 570 q 378 553 407 570 q 334 506 349 537 q 318 432 318 475 m 303 851 l 178 852 q 225 1004 178 952 q 342 1055 273 1055 q 404 1044 378 1055 q 450 1017 430 1032 q 488 990 470 1001 q 525 978 505 978 q 566 999 553 979 q 581 1054 580 1019 l 704 1053 q 655 902 703 954 q 540 849 608 850 q 476 861 503 849 q 431 888 450 872 q 395 915 412 903 q 357 926 378 926 q 318 907 333 926 q 303 851 303 887 z "},"o":{"ha":860,"x_min":47,"x_max":813,"o":"m 430 -14 q 225 35 311 -14 q 93 172 140 84 q 47 376 47 260 q 93 581 47 493 q 225 718 140 669 q 430 767 311 767 q 635 718 549 767 q 767 581 721 669 q 813 376 813 493 q 767 172 813 260 q 635 35 721 84 q 430 -14 549 -14 m 432 168 q 505 194 475 168 q 551 268 535 221 q 567 378 567 316 q 551 488 567 441 q 505 562 535 536 q 432 589 475 589 q 356 562 387 589 q 309 488 325 536 q 293 378 293 441 q 309 268 293 316 q 356 194 325 221 q 432 168 387 168 z "},"ö":{"ha":860,"x_min":47,"x_max":813,"o":"m 430 -14 q 225 35 311 -14 q 93 172 140 84 q 47 376 47 260 q 93 581 47 493 q 225 718 140 669 q 430 767 311 767 q 635 718 549 767 q 767 581 721 669 q 813 376 813 493 q 767 172 813 260 q 635 35 721 84 q 430 -14 549 -14 m 432 168 q 505 194 475 168 q 551 268 535 221 q 567 378 567 316 q 551 488 567 441 q 505 562 535 536 q 432 589 475 589 q 356 562 387 589 q 309 488 325 536 q 293 378 293 441 q 309 268 293 316 q 356 194 325 221 q 432 168 387 168 m 277 854 q 198 885 230 854 q 165 961 165 917 q 198 1037 165 1006 q 277 1068 230 1068 q 355 1037 323 1068 q 388 961 388 1006 q 355 885 388 917 q 277 854 323 854 m 585 854 q 505 885 538 854 q 472 961 472 917 q 505 1037 472 1006 q 585 1068 538 1068 q 663 1037 631 1068 q 695 961 695 1006 q 663 885 695 917 q 585 854 631 854 z "},"õ":{"ha":860,"x_min":47,"x_max":813,"o":"m 430 -14 q 225 35 311 -14 q 93 172 140 84 q 47 376 47 260 q 93 581 47 493 q 225 718 140 669 q 430 767 311 767 q 635 718 549 767 q 767 581 721 669 q 813 376 813 493 q 767 172 813 260 q 635 35 721 84 q 430 -14 549 -14 m 432 168 q 505 194 475 168 q 551 268 535 221 q 567 378 567 316 q 551 488 567 441 q 505 562 535 536 q 432 589 475 589 q 356 562 387 589 q 309 488 325 536 q 293 378 293 441 q 309 268 293 316 q 356 194 325 221 q 432 168 387 168 m 292 851 l 167 852 q 215 1004 167 952 q 331 1055 262 1055 q 393 1044 367 1055 q 439 1017 419 1032 q 477 990 459 1001 q 514 978 494 978 q 556 999 542 979 q 570 1054 569 1019 l 693 1053 q 645 902 692 954 q 529 849 597 850 q 466 861 492 849 q 420 888 439 872 q 384 915 401 903 q 346 926 367 926 q 307 907 322 926 q 292 851 292 887 z "},"ø":{"ha":860,"x_min":47,"x_max":813,"o":"m 206 -51 l 103 19 l 652 802 l 757 732 l 206 -51 m 430 -16 q 225 33 311 -16 q 93 170 140 82 q 47 375 47 258 q 93 580 47 492 q 225 717 140 668 q 430 766 311 766 q 635 717 549 766 q 767 580 721 668 q 813 375 813 492 q 767 170 813 258 q 635 33 721 82 q 430 -16 549 -16 m 432 166 q 505 193 475 166 q 551 266 535 219 q 567 376 567 314 q 551 487 567 439 q 505 560 535 534 q 432 587 475 587 q 356 560 387 587 q 309 487 325 534 q 293 376 293 439 q 309 266 293 314 q 356 193 325 219 q 432 166 387 166 z "},"ò":{"ha":860,"x_min":47,"x_max":813,"o":"m 430 -14 q 225 35 311 -14 q 93 172 140 84 q 47 376 47 260 q 93 581 47 493 q 225 718 140 669 q 430 767 311 767 q 635 718 549 767 q 767 581 721 669 q 813 376 813 493 q 767 172 813 260 q 635 35 721 84 q 430 -14 549 -14 m 432 168 q 505 194 475 168 q 551 268 535 221 q 567 378 567 316 q 551 488 567 441 q 505 562 535 536 q 432 589 475 589 q 356 562 387 589 q 309 488 325 536 q 293 378 293 441 q 309 268 293 316 q 356 194 325 221 q 432 168 387 168 m 349 854 l 200 1076 l 413 1076 l 513 854 l 349 854 z "},"ó":{"ha":860,"x_min":47,"x_max":813,"o":"m 430 -14 q 225 35 311 -14 q 93 172 140 84 q 47 376 47 260 q 93 581 47 493 q 225 718 140 669 q 430 767 311 767 q 635 718 549 767 q 767 581 721 669 q 813 376 813 493 q 767 172 813 260 q 635 35 721 84 q 430 -14 549 -14 m 432 168 q 505 194 475 168 q 551 268 535 221 q 567 378 567 316 q 551 488 567 441 q 505 562 535 536 q 432 589 475 589 q 356 562 387 589 q 309 488 325 536 q 293 378 293 441 q 309 268 293 316 q 356 194 325 221 q 432 168 387 168 m 347 854 l 446 1076 l 660 1076 l 511 854 l 347 854 z "},"ô":{"ha":860,"x_min":47,"x_max":813,"o":"m 430 -14 q 225 35 311 -14 q 93 172 140 84 q 47 376 47 260 q 93 581 47 493 q 225 718 140 669 q 430 767 311 767 q 635 718 549 767 q 767 581 721 669 q 813 376 813 493 q 767 172 813 260 q 635 35 721 84 q 430 -14 549 -14 m 432 168 q 505 194 475 168 q 551 268 535 221 q 567 378 567 316 q 551 488 567 441 q 505 562 535 536 q 432 589 475 589 q 356 562 387 589 q 309 488 325 536 q 293 378 293 441 q 309 268 293 316 q 356 194 325 221 q 432 168 387 168 m 528 848 l 430 963 l 332 848 l 130 848 l 130 855 l 344 1076 l 517 1076 l 730 855 l 730 848 l 528 848 z "},"œ":{"ha":1350,"x_min":50,"x_max":1327,"o":"m 433 -14 q 228 35 314 -14 q 96 172 143 84 q 50 376 50 260 q 96 581 50 493 q 228 718 143 669 q 433 767 314 767 q 638 718 552 767 q 770 581 724 669 q 816 376 816 493 q 770 172 816 260 q 638 35 724 84 q 433 -14 552 -14 m 435 168 q 508 194 478 168 q 554 268 538 221 q 570 378 570 316 q 554 488 570 441 q 508 562 538 536 q 435 589 478 589 q 359 562 390 589 q 312 488 328 536 q 296 378 296 441 q 312 268 296 316 q 359 194 328 221 q 435 168 390 168 m 968 -14 q 763 33 849 -14 q 631 167 677 80 q 584 376 584 255 q 631 581 584 493 q 762 718 677 669 q 960 767 846 767 q 1108 742 1041 767 q 1224 668 1175 717 q 1300 546 1273 618 q 1327 381 1327 474 l 1327 321 l 669 321 l 669 461 l 1103 461 q 1085 529 1102 499 q 1036 576 1067 559 q 965 593 1005 593 q 893 575 925 593 q 842 527 861 557 q 822 457 823 496 l 822 314 q 840 233 822 268 q 892 179 859 198 q 972 160 926 160 q 1030 169 1004 160 q 1075 195 1056 178 q 1103 237 1094 212 l 1325 231 q 1264 101 1311 156 q 1142 16 1218 46 q 968 -14 1067 -14 z "},"p":{"ha":889,"x_min":76,"x_max":838,"o":"m 76 -284 l 76 758 l 315 758 l 315 628 l 323 628 q 365 694 337 662 q 435 747 392 727 q 537 767 477 767 q 685 726 616 767 q 796 598 754 685 q 838 378 838 512 q 798 163 838 250 q 688 33 757 76 q 536 -11 619 -11 q 436 8 478 -11 q 366 57 395 27 q 323 123 338 88 l 318 123 l 318 -284 l 76 -284 m 313 379 q 329 272 313 318 q 377 202 346 227 q 452 177 408 177 q 528 202 497 177 q 575 272 559 227 q 591 379 591 318 q 575 485 591 440 q 528 554 559 530 q 452 579 497 579 q 377 555 408 579 q 329 486 346 531 q 313 379 313 441 z "},"q":{"ha":889,"x_min":50,"x_max":812,"o":"m 571 -284 l 571 123 l 566 123 q 523 57 551 88 q 453 8 495 27 q 353 -11 410 -11 q 201 33 269 -11 q 91 163 132 76 q 50 378 50 250 q 93 598 50 512 q 204 726 135 685 q 352 767 273 767 q 454 747 412 767 q 524 694 497 727 q 566 628 552 662 l 574 628 l 574 758 l 812 758 l 812 -284 l 571 -284 m 437 177 q 512 202 481 177 q 560 272 543 227 q 577 379 577 318 q 560 486 577 441 q 512 555 544 531 q 437 579 481 579 q 361 554 392 579 q 314 485 330 530 q 298 379 298 440 q 314 272 298 318 q 361 202 330 227 q 437 177 392 177 z "},"r":{"ha":585,"x_min":76,"x_max":563,"o":"m 76 0 l 76 758 l 311 758 l 311 619 l 319 619 q 386 731 339 694 q 495 768 433 768 q 530 766 512 768 q 563 759 547 763 l 563 549 q 518 559 545 555 q 468 562 490 562 q 391 543 425 562 q 337 491 357 524 q 318 411 318 457 l 318 0 l 76 0 z "},"s":{"ha":799,"x_min":43,"x_max":757,"o":"m 738 526 l 516 520 q 498 563 513 544 q 458 592 482 581 q 401 602 434 602 q 330 585 360 602 q 301 540 301 569 q 319 502 301 518 q 386 475 338 485 l 532 448 q 701 376 645 426 q 757 243 756 326 q 710 107 756 165 q 586 18 665 49 q 405 -14 507 -14 q 150 53 243 -14 q 43 232 56 119 l 281 238 q 322 175 289 196 q 406 153 355 153 q 482 170 453 153 q 511 216 511 187 q 489 257 511 242 q 419 282 467 273 l 287 307 q 117 383 173 327 q 62 526 62 439 q 103 656 62 602 q 219 739 144 710 q 397 767 294 767 q 640 703 551 767 q 738 526 728 639 z "},"ß":{"ha":947,"x_min":76,"x_max":898,"o":"m 76 0 l 76 741 q 121 892 76 829 q 249 990 166 956 q 443 1024 331 1024 q 633 993 546 1024 q 772 901 720 962 q 825 746 825 839 q 788 616 825 670 q 684 544 751 562 l 684 533 q 841 456 784 527 q 897 278 898 385 q 854 125 897 187 q 735 32 811 63 q 562 0 660 0 l 421 0 l 421 192 l 516 192 q 589 206 558 192 q 636 245 619 220 q 653 305 653 271 q 611 389 652 358 q 500 420 570 420 l 425 420 l 425 601 l 474 601 q 528 616 506 601 q 564 656 551 631 q 578 711 577 681 q 545 794 579 762 q 451 826 511 826 q 354 792 390 826 q 318 699 318 758 l 318 0 l 76 0 z "},"t":{"ha":551,"x_min":26,"x_max":518,"o":"m 504 758 l 504 580 l 26 580 l 26 758 l 504 758 m 126 939 l 367 939 l 367 238 q 375 202 367 216 q 396 183 382 189 q 429 178 409 178 q 458 180 442 178 q 481 185 473 183 l 518 11 q 469 -1 501 6 q 395 -11 438 -9 q 249 9 310 -15 q 157 84 189 33 q 126 212 125 135 l 126 939 z "},"u":{"ha":883,"x_min":76,"x_max":806,"o":"m 565 327 l 565 758 l 806 758 l 806 0 l 576 0 l 576 141 l 568 141 q 483 31 543 72 q 337 -10 422 -10 q 201 26 259 -10 q 109 125 142 61 q 76 275 77 189 l 76 758 l 318 758 l 318 322 q 350 225 318 260 q 437 189 382 189 q 502 205 473 189 q 548 252 531 221 q 565 327 565 283 z "},"ü":{"ha":883,"x_min":76,"x_max":806,"o":"m 565 327 l 565 758 l 806 758 l 806 0 l 576 0 l 576 141 l 568 141 q 483 31 543 72 q 337 -10 422 -10 q 201 26 259 -10 q 109 125 142 61 q 76 275 77 189 l 76 758 l 318 758 l 318 322 q 350 225 318 260 q 437 189 382 189 q 502 205 473 189 q 548 252 531 221 q 565 327 565 283 m 289 854 q 210 885 243 854 q 177 961 177 917 q 210 1037 177 1006 q 289 1068 243 1068 q 367 1037 335 1068 q 400 961 400 1006 q 367 885 400 917 q 289 854 335 854 m 597 854 q 518 885 550 854 q 485 961 485 917 q 518 1037 485 1006 q 597 1068 550 1068 q 675 1037 643 1068 q 707 961 707 1006 q 675 885 707 917 q 597 854 643 854 z "},"µ":{"ha":946,"x_min":76,"x_max":870,"o":"m 76 -271 l 76 758 l 318 758 l 318 327 q 338 255 318 287 q 392 207 357 224 q 473 189 427 189 q 554 207 519 189 q 609 256 589 224 q 628 327 629 287 l 628 758 l 870 758 l 870 0 l 640 0 l 640 106 l 634 106 q 571 35 614 61 q 473 9 528 9 q 376 35 419 9 q 313 106 332 61 l 307 106 l 307 -271 l 76 -271 z "},"ù":{"ha":883,"x_min":76,"x_max":806,"o":"m 565 327 l 565 758 l 806 758 l 806 0 l 576 0 l 576 141 l 568 141 q 483 31 543 72 q 337 -10 422 -10 q 201 26 259 -10 q 109 125 142 61 q 76 275 77 189 l 76 758 l 318 758 l 318 322 q 350 225 318 260 q 437 189 382 189 q 502 205 473 189 q 548 252 531 221 q 565 327 565 283 m 362 854 l 212 1076 l 426 1076 l 526 854 l 362 854 z "},"ú":{"ha":883,"x_min":76,"x_max":806,"o":"m 565 327 l 565 758 l 806 758 l 806 0 l 576 0 l 576 141 l 568 141 q 483 31 543 72 q 337 -10 422 -10 q 201 26 259 -10 q 109 125 142 61 q 76 275 77 189 l 76 758 l 318 758 l 318 322 q 350 225 318 260 q 437 189 382 189 q 502 205 473 189 q 548 252 531 221 q 565 327 565 283 m 359 854 l 459 1076 l 672 1076 l 523 854 l 359 854 z "},"û":{"ha":883,"x_min":76,"x_max":806,"o":"m 565 327 l 565 758 l 806 758 l 806 0 l 576 0 l 576 141 l 568 141 q 483 31 543 72 q 337 -10 422 -10 q 201 26 259 -10 q 109 125 142 61 q 76 275 77 189 l 76 758 l 318 758 l 318 322 q 350 225 318 260 q 437 189 382 189 q 502 205 473 189 q 548 252 531 221 q 565 327 565 283 m 540 848 l 442 963 l 344 848 l 142 848 l 142 855 l 356 1076 l 529 1076 l 742 855 l 742 848 l 540 848 z "},"v":{"ha":827,"x_min":16,"x_max":811,"o":"m 811 758 l 551 0 l 275 0 l 16 758 l 270 758 l 409 236 l 417 236 l 557 758 l 811 758 z "},"w":{"ha":1198,"x_min":21,"x_max":1177,"o":"m 218 0 l 21 758 l 263 758 l 365 272 l 371 272 l 481 758 l 717 758 l 830 276 l 836 276 l 935 758 l 1177 758 l 980 0 l 722 0 l 603 441 l 595 441 l 476 0 l 218 0 z "},"x":{"ha":813,"x_min":26,"x_max":787,"o":"m 282 758 l 406 508 l 536 758 l 779 758 l 567 379 l 787 0 l 545 0 l 406 252 l 271 0 l 26 0 l 246 379 l 37 758 l 282 758 z "},"y":{"ha":827,"x_min":16,"x_max":811,"o":"m 224 -284 q 142 -277 181 -284 q 76 -260 104 -271 l 129 -85 q 194 -99 165 -97 q 243 -90 222 -101 q 276 -50 264 -78 l 285 -28 l 16 758 l 268 758 l 408 217 l 416 217 l 557 758 l 811 758 l 526 -73 q 467 -182 505 -135 q 370 -257 430 -230 q 224 -284 311 -284 z "},"ÿ":{"ha":827,"x_min":16,"x_max":811,"o":"m 224 -284 q 142 -277 181 -284 q 76 -260 104 -271 l 129 -85 q 194 -99 165 -97 q 243 -90 222 -101 q 276 -50 264 -78 l 285 -28 l 16 758 l 268 758 l 408 217 l 416 217 l 557 758 l 811 758 l 526 -73 q 467 -182 505 -135 q 370 -257 430 -230 q 224 -284 311 -284 m 259 854 q 180 885 213 854 q 147 961 147 917 q 180 1037 147 1006 q 259 1068 213 1068 q 337 1037 305 1068 q 369 961 369 1006 q 337 885 369 917 q 259 854 305 854 m 567 854 q 488 885 520 854 q 455 961 455 917 q 488 1037 455 1006 q 567 1068 520 1068 q 645 1037 613 1068 q 677 961 677 1006 q 645 885 677 917 q 567 854 613 854 z "},"ý":{"ha":827,"x_min":16,"x_max":811,"o":"m 224 -284 q 142 -277 181 -284 q 76 -260 104 -271 l 129 -85 q 194 -99 165 -97 q 243 -90 222 -101 q 276 -50 264 -78 l 285 -28 l 16 758 l 268 758 l 408 217 l 416 217 l 557 758 l 811 758 l 526 -73 q 467 -182 505 -135 q 370 -257 430 -230 q 224 -284 311 -284 m 329 854 l 429 1076 l 642 1076 l 493 854 l 329 854 z "},"z":{"ha":808,"x_min":78,"x_max":729,"o":"m 78 0 l 78 138 l 430 565 l 430 570 l 91 570 l 91 758 l 717 758 l 717 607 l 392 192 l 392 187 l 729 187 l 729 0 l 78 0 z "},"Þ":{"ha":950,"x_min":76,"x_max":844,"o":"m 76 1010 l 321 1010 l 321 0 l 76 0 l 76 1010 m 189 833 l 453 833 q 667 792 579 833 q 799 680 754 751 q 844 517 844 609 q 799 355 844 426 q 667 244 754 284 q 453 204 579 204 l 189 204 l 189 386 l 453 386 q 545 405 510 386 q 596 453 580 424 q 611 515 611 482 q 596 580 611 549 q 545 629 580 610 q 453 648 510 648 l 189 648 l 189 833 z "},"ð":{"ha":842,"x_min":47,"x_max":795,"o":"m 642 948 l 161 699 l 154 802 l 636 1051 l 642 948 m 417 -16 q 223 30 306 -16 q 93 157 140 75 q 47 347 47 239 q 86 525 47 445 q 194 652 124 605 q 357 698 263 698 q 435 688 400 698 q 498 660 470 678 q 546 621 526 643 l 557 621 q 456 757 521 694 q 313 866 392 819 q 155 942 234 913 l 166 1063 q 401 985 289 1041 q 603 843 514 929 q 743 644 691 757 q 795 395 795 531 q 749 179 795 271 q 619 35 703 86 q 417 -16 534 -16 m 424 164 q 503 188 470 164 q 555 257 537 212 q 573 362 573 301 q 556 462 573 419 q 507 531 540 506 q 424 555 473 555 q 342 531 375 555 q 292 465 309 508 q 276 364 276 422 q 293 259 276 304 q 344 189 311 214 q 424 164 377 164 z "},"þ":{"ha":853,"x_min":76,"x_max":802,"o":"m 76 1010 l 318 1010 l 318 633 l 230 364 l 318 151 l 318 -284 l 76 -284 l 76 1010 m 221 682 l 326 682 q 364 729 339 710 q 424 758 389 748 q 501 767 459 767 q 647 726 579 767 q 759 598 716 685 q 802 378 802 512 q 761 162 802 249 q 651 32 720 75 q 500 -11 582 -11 q 426 -2 460 -11 q 365 25 391 6 q 326 72 340 43 l 221 72 l 221 682 m 575 379 q 559 488 576 443 q 510 556 543 533 q 427 579 477 579 q 345 552 374 579 q 303 479 315 525 q 291 379 291 434 q 302 279 291 326 q 343 205 314 233 q 427 177 373 177 q 509 201 476 177 q 559 270 543 224 q 575 379 576 315 z "},"$":{"ha":917,"x_min":47,"x_max":870,"o":"m 428 -126 l 428 1136 l 509 1136 l 509 -126 l 428 -126 m 622 707 q 579 792 618 762 q 469 822 540 822 q 390 810 421 822 q 342 776 358 798 q 326 727 327 755 q 335 687 325 704 q 365 657 345 670 q 412 634 384 644 q 474 617 439 624 l 561 597 q 693 553 636 581 q 790 489 751 526 q 849 402 829 451 q 870 293 870 354 q 822 129 870 197 q 684 24 774 60 q 469 -13 595 -13 q 248 25 342 -13 q 101 141 153 63 q 47 336 49 218 l 281 336 q 307 255 284 288 q 371 206 330 222 q 466 189 412 189 q 550 202 515 189 q 603 239 584 216 q 622 293 622 263 q 605 343 622 322 q 552 378 587 363 q 461 406 516 393 l 355 431 q 148 528 224 461 q 73 710 73 595 q 124 874 73 804 q 264 984 175 945 q 469 1024 354 1024 q 673 984 586 1024 q 807 873 760 945 q 856 707 855 801 l 622 707 z "},"¢":{"ha":829,"x_min":47,"x_max":782,"o":"m 391 0 l 391 1010 l 472 1010 l 472 0 l 391 0 m 430 114 q 225 164 310 114 q 93 301 139 213 q 47 505 47 389 q 93 709 47 621 q 225 847 140 798 q 430 896 311 896 q 613 858 535 896 q 735 750 691 820 q 782 588 779 681 l 556 588 q 517 679 549 646 q 433 712 485 712 q 360 689 391 712 q 310 620 328 665 q 293 507 293 574 q 310 394 293 440 q 360 325 328 348 q 433 301 391 301 q 492 315 467 301 q 535 357 518 329 q 556 425 552 385 l 782 425 q 735 261 778 331 q 614 153 692 191 q 430 114 537 114 z "},"¥":{"ha":806,"x_min":20,"x_max":786,"o":"m 266 1010 l 459 519 l 297 386 l 20 1010 l 266 1010 m 350 525 l 540 1010 l 786 1010 l 507 386 l 350 525 m 519 532 l 519 0 l 279 0 l 279 532 l 519 532 m 712 527 l 712 394 l 66 394 l 66 527 l 712 527 m 712 331 l 712 198 l 66 198 l 66 331 l 712 331 z "},"£":{"ha":952,"x_min":98,"x_max":856,"o":"m 856 0 l 100 0 l 100 198 l 856 198 l 856 0 m 666 405 l 98 405 l 98 592 l 666 592 l 666 405 m 444 731 l 460 314 q 428 202 462 245 q 311 127 393 159 l 173 198 q 201 219 192 205 q 214 253 211 233 q 217 298 218 273 l 202 731 q 238 889 198 824 q 353 989 279 955 q 524 1024 427 1024 q 664 1004 603 1024 q 768 946 726 984 q 832 855 810 908 q 855 735 854 801 l 626 732 q 612 792 626 770 q 576 823 599 814 q 526 832 554 832 q 482 820 501 832 q 454 787 464 809 q 444 731 443 764 z "},"€":{"ha":963,"x_min":42,"x_max":889,"o":"m 757 666 l 707 554 l 42 554 l 84 666 l 757 666 m 660 456 l 603 341 l 42 341 l 84 456 l 660 456 m 889 937 l 799 746 q 758 770 784 755 q 698 797 733 785 q 619 808 663 808 q 511 778 556 808 q 441 680 466 747 q 417 504 417 613 q 441 327 417 394 q 511 231 466 261 q 619 202 556 202 q 697 213 663 202 q 756 239 731 224 q 796 263 781 254 l 886 72 q 764 8 832 29 q 619 -14 696 -14 q 386 47 488 -14 q 228 223 285 108 q 171 504 171 339 q 228 784 171 668 q 386 962 285 901 q 619 1024 488 1024 q 766 1001 699 1024 q 889 937 834 979 z "},"&":{"ha":952,"x_min":50,"x_max":954,"o":"m 394 -15 q 210 23 288 -15 q 92 125 133 61 q 50 268 50 189 q 73 371 50 327 q 137 454 96 416 q 232 528 178 491 l 444 663 q 495 711 480 686 q 510 762 510 736 q 489 811 510 789 q 427 833 468 833 q 382 822 401 833 q 352 793 363 811 q 341 751 341 774 q 359 690 341 721 q 405 622 376 658 q 471 544 435 587 l 954 0 l 709 0 l 304 439 q 231 526 269 478 q 167 631 193 574 q 141 755 141 688 q 177 891 141 830 q 276 989 212 952 q 427 1025 341 1025 q 570 991 509 1025 q 662 901 630 957 q 695 777 695 844 q 660 647 695 706 q 561 542 625 587 l 353 393 q 301 343 320 369 q 283 284 283 316 q 298 227 283 252 q 342 189 314 203 q 409 176 371 176 q 512 200 461 176 q 606 269 563 224 q 674 375 648 314 q 699 510 699 436 l 894 510 q 874 342 894 419 q 817 202 855 264 q 723 101 779 141 q 688 82 705 91 q 654 63 671 73 q 527 3 595 21 q 394 -15 460 -15 z "},"!":{"ha":472,"x_min":108,"x_max":364,"o":"m 360 1010 l 337 309 l 135 309 l 112 1010 l 360 1010 m 236 -14 q 145 23 183 -14 q 108 114 108 61 q 145 203 108 166 q 236 241 183 241 q 325 203 287 241 q 364 114 364 166 q 346 49 364 78 q 299 3 328 20 q 236 -14 270 -14 z "},"¡":{"ha":472,"x_min":108,"x_max":364,"o":"m 360 -255 l 112 -255 l 135 446 l 337 446 l 360 -255 m 236 769 q 325 732 287 769 q 364 641 364 694 q 325 552 364 589 q 236 514 287 514 q 145 552 183 514 q 108 641 108 589 q 125 706 108 677 q 171 752 142 735 q 236 769 201 769 z "},"?":{"ha":807,"x_min":52,"x_max":744,"o":"m 266 309 l 266 329 q 280 463 266 413 q 322 543 294 513 q 388 599 349 574 q 443 639 419 618 q 482 683 468 659 q 496 737 496 707 q 482 788 496 766 q 445 822 469 810 q 392 835 421 835 q 337 821 363 835 q 296 783 312 808 q 279 725 280 759 l 52 725 q 100 894 54 828 q 224 992 147 960 q 394 1024 301 1024 q 574 992 495 1024 q 699 899 654 961 q 744 748 744 837 q 725 645 744 690 q 670 565 705 600 q 587 503 634 531 q 526 458 550 481 q 489 404 501 434 q 476 329 476 373 l 476 309 l 266 309 m 375 -14 q 284 23 322 -14 q 247 114 247 61 q 284 203 247 166 q 375 241 322 241 q 465 203 426 241 q 504 114 503 166 q 485 49 503 78 q 438 3 467 20 q 375 -14 409 -14 z "},"¿":{"ha":807,"x_min":63,"x_max":755,"o":"m 541 435 l 541 415 q 527 281 541 331 q 486 201 512 231 q 419 146 459 171 q 364 106 389 126 q 325 62 339 85 q 311 8 311 38 q 325 -44 311 -22 q 362 -78 338 -66 q 415 -90 386 -90 q 470 -77 444 -90 q 511 -39 495 -64 q 528 20 527 -14 l 755 20 q 707 -150 753 -83 q 583 -248 660 -216 q 413 -279 507 -279 q 233 -248 312 -279 q 108 -155 153 -216 q 63 -3 63 -93 q 82 100 63 56 q 137 179 102 145 q 220 241 173 214 q 282 287 257 264 q 318 341 306 310 q 330 415 330 372 l 330 435 l 541 435 m 432 759 q 523 721 485 759 q 560 630 561 684 q 523 541 561 578 q 432 504 485 504 q 343 541 381 504 q 303 630 304 578 q 322 695 304 666 q 369 742 340 725 q 432 759 398 759 z "},"(":{"ha":590,"x_min":124,"x_max":561,"o":"m 124 398 q 174 734 124 581 q 327 1019 223 888 l 561 1019 q 488 901 522 971 q 429 747 454 831 q 390 575 404 664 q 376 398 376 485 q 400 163 376 281 q 466 -57 424 44 q 561 -224 508 -159 l 327 -224 q 174 61 223 -92 q 124 398 124 215 z "},")":{"ha":590,"x_min":29,"x_max":466,"o":"m 466 398 q 416 61 466 215 q 262 -224 367 -92 l 29 -224 q 102 -105 69 -175 q 161 48 136 -35 q 200 221 186 132 q 214 398 214 310 q 190 633 214 514 q 124 853 166 752 q 29 1019 82 954 l 262 1019 q 416 734 367 888 q 466 398 466 581 z "},"[":{"ha":590,"x_min":142,"x_max":563,"o":"m 142 -224 l 142 1019 l 563 1019 l 563 842 l 375 842 l 375 -47 l 563 -47 l 563 -224 l 142 -224 z "},"]":{"ha":590,"x_min":27,"x_max":448,"o":"m 448 1019 l 448 -224 l 27 -224 l 27 -47 l 215 -47 l 215 842 l 27 842 l 27 1019 l 448 1019 z "},"{":{"ha":590,"x_min":40,"x_max":563,"o":"m 40 393 l 40 504 q 160 538 126 504 q 193 646 193 572 l 193 739 q 222 895 193 838 q 303 979 252 952 q 421 1012 354 1005 q 563 1019 488 1019 l 563 842 q 475 828 504 842 q 436 785 445 814 q 426 711 426 756 l 426 585 q 410 513 426 547 q 354 451 395 478 q 237 408 313 424 q 40 393 162 393 m 563 -224 q 421 -217 488 -224 q 303 -183 354 -210 q 222 -100 252 -156 q 193 56 193 -43 l 193 149 q 160 257 193 223 q 40 291 126 291 l 40 403 q 237 387 162 403 q 354 344 313 371 q 410 283 395 317 q 426 211 426 248 l 426 84 q 436 11 426 40 q 475 -33 445 -18 q 563 -47 504 -47 l 563 -224 m 40 291 l 40 504 l 237 504 l 237 291 l 40 291 z "},"}":{"ha":590,"x_min":27,"x_max":549,"o":"m 549 403 l 549 291 q 431 257 464 291 q 397 149 397 223 l 397 56 q 368 -100 397 -43 q 287 -183 338 -156 q 169 -217 236 -210 q 27 -224 103 -224 l 27 -47 q 115 -33 86 -47 q 154 11 145 -18 q 164 84 164 40 l 164 211 q 180 283 164 248 q 236 344 195 317 q 352 387 277 371 q 549 403 428 403 m 27 1019 q 169 1012 103 1019 q 287 979 236 1005 q 368 895 338 952 q 397 739 397 838 l 397 646 q 431 538 397 572 q 549 504 464 504 l 549 393 q 352 408 428 393 q 236 451 277 424 q 180 513 195 478 q 164 585 164 547 l 164 711 q 154 785 164 756 q 115 828 145 814 q 27 842 86 842 l 27 1019 m 549 504 l 549 291 l 353 291 l 353 504 l 549 504 z "},"@":{"ha":1475,"x_min":89,"x_max":1423,"o":"m 764 -299 q 479 -256 605 -299 q 267 -130 354 -213 q 135 72 181 -47 q 89 343 90 191 q 135 617 90 493 q 269 830 181 740 q 485 968 357 919 q 777 1017 613 1017 q 1047 975 927 1017 q 1250 852 1166 932 q 1379 659 1334 772 q 1422 404 1423 546 q 1404 230 1423 307 q 1345 99 1384 153 q 1247 13 1306 44 q 1107 -25 1187 -19 q 1008 -17 1042 -30 q 961 22 975 -3 q 942 79 947 47 l 936 79 q 886 25 924 49 q 795 -10 848 2 q 687 -19 742 -22 q 577 8 630 -15 q 481 76 524 31 q 414 188 438 120 q 388 349 389 256 q 414 507 389 441 q 481 618 439 574 q 571 686 522 662 q 668 718 620 711 q 778 720 725 728 q 868 692 832 711 q 914 652 905 674 l 921 652 l 921 707 l 1092 707 l 1092 214 q 1105 168 1093 182 q 1135 153 1117 153 q 1186 182 1164 153 q 1220 269 1208 210 q 1232 419 1232 328 q 1205 593 1232 521 q 1132 713 1178 665 q 1028 787 1087 760 q 905 825 970 814 q 776 836 839 836 q 559 798 651 836 q 407 693 467 760 q 317 539 347 627 q 288 352 288 452 q 320 150 288 238 q 414 3 352 63 q 568 -86 476 -56 q 778 -116 659 -116 q 890 -109 836 -116 q 990 -90 945 -102 q 1064 -67 1035 -79 l 1121 -227 q 1035 -263 1090 -246 q 911 -289 981 -279 q 764 -299 841 -299 m 753 164 q 845 186 811 164 q 894 251 879 208 q 907 356 908 294 q 894 447 907 407 q 847 509 881 486 q 751 532 814 532 q 659 510 696 532 q 601 450 621 489 q 581 355 581 410 q 597 262 581 306 q 651 191 614 218 q 753 164 689 164 z "},"#":{"ha":910,"x_min":11,"x_max":900,"o":"m 461 0 l 627 1010 l 804 1010 l 639 0 l 461 0 m 11 241 l 41 418 l 842 418 l 812 241 l 11 241 m 106 0 l 272 1010 l 449 1010 l 284 0 l 106 0 m 69 592 l 99 769 l 900 769 l 870 592 l 69 592 z "},"¤":{"ha":1082,"x_min":97,"x_max":989,"o":"m 542 -14 q 379 18 455 -14 q 245 109 302 51 q 154 245 187 167 q 122 412 121 322 q 154 580 121 503 q 245 715 187 657 q 379 804 302 772 q 542 836 455 836 q 703 804 627 836 q 836 715 779 772 q 927 580 894 657 q 960 412 960 503 q 927 245 960 322 q 836 109 894 167 q 703 18 779 51 q 542 -14 627 -14 m 542 121 q 653 144 601 121 q 744 205 705 166 q 806 298 784 245 q 829 412 829 351 q 790 561 829 495 q 686 665 751 627 q 542 703 620 703 q 395 665 461 703 q 292 561 330 627 q 254 412 254 495 q 292 264 254 330 q 395 160 330 198 q 542 121 461 121 m 847 618 l 747 720 l 888 860 l 989 758 l 847 618 m 888 -19 l 747 121 l 847 220 l 989 82 l 888 -19 m 196 -19 l 97 82 l 238 220 l 339 121 l 196 -19 m 238 618 l 97 758 l 196 860 l 339 720 l 238 618 z "},"/":{"ha":557,"x_min":13,"x_max":544,"o":"m 544 1057 l 218 -152 l 13 -152 l 338 1057 l 544 1057 z "},"|":{"ha":541,"x_min":154,"x_max":387,"o":"m 387 1336 l 387 -326 l 154 -326 l 154 1336 l 387 1336 z "},"¦":{"ha":516,"x_min":151,"x_max":365,"o":"m 151 285 l 365 285 l 365 -189 l 151 -189 l 151 285 m 365 1010 l 365 538 l 151 538 l 151 1010 l 365 1010 z "},"\\":{"ha":557,"x_min":13,"x_max":544,"o":"m 338 -152 l 13 1057 l 218 1057 l 544 -152 l 338 -152 z "},"-":{"ha":655,"x_min":94,"x_max":561,"o":"m 561 502 l 561 316 l 94 316 l 94 502 l 561 502 z "},"­":{"ha":655,"x_min":94,"x_max":561,"o":"m 561 502 l 561 316 l 94 316 l 94 502 l 561 502 z "},"–":{"ha":694,"x_min":0,"x_max":694,"o":"m 694 502 l 694 316 l 0 316 l 0 502 l 694 502 z "},"—":{"ha":1389,"x_min":0,"x_max":1389,"o":"m 1389 502 l 1389 316 l 0 316 l 0 502 l 1389 502 z "},"•":{"ha":598,"x_min":82,"x_max":516,"o":"m 299 185 q 190 215 239 185 q 111 293 141 244 q 82 402 82 343 q 111 512 82 463 q 190 590 141 561 q 299 619 239 619 q 408 590 359 619 q 487 512 457 561 q 516 402 516 463 q 487 293 516 343 q 408 215 457 244 q 299 185 359 185 z "},"‘":{"ha":357,"x_min":80,"x_max":311,"o":"m 80 694 l 80 807 q 98 902 80 854 q 147 992 117 950 q 209 1060 177 1033 l 311 1004 q 269 914 285 961 q 254 807 253 867 l 254 694 l 80 694 z "},"’":{"ha":337,"x_min":45,"x_max":277,"o":"m 277 1010 l 277 898 q 259 803 277 851 q 211 714 240 756 q 148 644 181 673 l 45 700 q 86 785 68 738 q 104 897 104 832 l 104 1010 l 277 1010 z "},"ʼ":{"ha":331,"x_min":48,"x_max":280,"o":"m 280 1010 l 280 898 q 262 803 280 851 q 214 714 243 756 q 151 644 184 673 l 48 700 q 89 785 71 738 q 107 897 107 832 l 107 1010 l 280 1010 z "},"'":{"ha":284,"x_min":59,"x_max":223,"o":"m 223 1010 l 223 614 l 59 614 l 59 1010 l 223 1010 z "},"\"":{"ha":540,"x_min":59,"x_max":478,"o":"m 223 1010 l 223 614 l 59 614 l 59 1010 l 223 1010 m 478 1010 l 478 614 l 315 614 l 315 1010 l 478 1010 z "},"“":{"ha":605,"x_min":80,"x_max":559,"o":"m 80 694 l 80 807 q 98 902 80 854 q 147 992 117 950 q 209 1060 177 1033 l 311 1004 q 269 914 285 961 q 254 807 253 867 l 254 694 l 80 694 m 327 694 l 327 807 q 346 902 327 854 q 394 992 364 950 q 456 1060 424 1033 l 559 1004 q 516 914 532 961 q 501 807 501 867 l 501 694 l 327 694 z "},"”":{"ha":603,"x_min":45,"x_max":523,"o":"m 277 1010 l 277 898 q 259 803 277 851 q 211 714 240 756 q 148 644 181 673 l 45 700 q 86 785 68 738 q 104 897 104 832 l 104 1010 l 277 1010 m 523 1010 l 523 898 q 505 803 523 851 q 457 714 486 756 q 394 644 427 673 l 291 700 q 332 785 314 738 q 350 897 350 832 l 350 1010 l 523 1010 z "},"„":{"ha":603,"x_min":42,"x_max":520,"o":"m 274 126 l 274 14 q 256 -81 274 -33 q 208 -170 237 -128 q 145 -240 178 -211 l 42 -183 q 83 -99 65 -146 q 101 13 101 -52 l 101 126 l 274 126 m 520 126 l 520 14 q 502 -81 520 -33 q 454 -170 483 -128 q 391 -240 424 -211 l 289 -183 q 329 -99 311 -146 q 347 13 347 -52 l 347 126 l 520 126 z "},"‚":{"ha":357,"x_min":45,"x_max":277,"o":"m 277 126 l 277 14 q 258 -81 277 -33 q 210 -170 240 -128 q 147 -240 181 -211 l 45 -183 q 85 -99 68 -146 q 103 13 103 -52 l 103 126 l 277 126 z "},"′":{"ha":415,"x_min":85,"x_max":330,"o":"m 85 609 l 120 1010 l 330 1010 l 247 609 l 85 609 z "},"″":{"ha":719,"x_min":85,"x_max":634,"o":"m 85 609 l 120 1010 l 330 1010 l 247 609 l 85 609 m 389 609 l 424 1010 l 634 1010 l 551 609 l 389 609 z "},",":{"ha":431,"x_min":72,"x_max":323,"o":"m 323 138 l 318 83 q 294 -50 312 15 q 256 -166 276 -114 q 224 -247 236 -218 l 72 -247 q 93 -166 80 -218 q 119 -49 107 -114 q 132 83 131 16 l 133 138 l 323 138 z "},".":{"ha":424,"x_min":83,"x_max":340,"o":"m 212 -14 q 121 23 159 -14 q 84 114 83 61 q 121 203 83 166 q 212 241 159 241 q 301 203 262 241 q 340 114 340 166 q 322 49 340 78 q 275 3 304 20 q 212 -14 246 -14 z "},"…":{"ha":1099,"x_min":90,"x_max":1022,"o":"m 218 -14 q 127 23 165 -14 q 90 114 90 61 q 127 203 90 166 q 218 241 165 241 q 308 203 269 241 q 347 114 346 166 q 328 49 346 78 q 281 3 310 20 q 218 -14 253 -14 m 556 -14 q 465 23 503 -14 q 428 114 428 61 q 465 203 428 166 q 556 241 503 241 q 645 203 607 241 q 685 114 684 166 q 666 49 684 78 q 619 3 648 20 q 556 -14 590 -14 m 894 -14 q 803 23 840 -14 q 765 114 765 61 q 803 203 765 166 q 894 241 840 241 q 983 203 944 241 q 1022 114 1021 166 q 1003 49 1021 78 q 957 3 985 20 q 894 -14 928 -14 z "},":":{"ha":424,"x_min":83,"x_max":340,"o":"m 212 -14 q 121 23 159 -14 q 84 114 83 61 q 121 203 83 166 q 212 241 159 241 q 301 203 262 241 q 340 114 340 166 q 322 49 340 78 q 275 3 304 20 q 212 -14 246 -14 m 212 506 q 121 543 159 506 q 84 634 83 580 q 121 723 83 686 q 212 761 159 761 q 301 723 262 761 q 340 634 340 686 q 322 569 340 598 q 275 523 304 540 q 212 506 246 506 z "},";":{"ha":431,"x_min":72,"x_max":358,"o":"m 323 138 l 318 83 q 294 -50 312 15 q 256 -166 276 -114 q 224 -247 236 -218 l 72 -247 q 93 -166 80 -218 q 119 -49 107 -114 q 132 83 131 16 l 133 138 l 323 138 m 230 506 q 139 543 177 506 q 102 634 101 580 q 139 723 101 686 q 230 761 177 761 q 319 723 280 761 q 358 634 358 686 q 340 569 358 598 q 293 523 322 540 q 230 506 264 506 z "},"·":{"ha":424,"x_min":83,"x_max":340,"o":"m 212 314 q 121 352 159 314 q 84 442 83 389 q 121 532 83 495 q 212 569 159 569 q 301 532 262 569 q 340 442 340 495 q 322 378 340 407 q 275 331 304 349 q 212 314 246 314 z "},"‹":{"ha":560,"x_min":77,"x_max":496,"o":"m 496 109 l 276 109 l 77 404 l 77 414 l 306 414 l 496 109 m 496 714 l 306 408 l 77 408 l 77 418 l 276 714 l 496 714 z "},"›":{"ha":560,"x_min":63,"x_max":481,"o":"m 63 109 l 252 414 l 481 414 l 481 404 l 282 109 l 63 109 m 63 714 l 282 714 l 481 418 l 481 408 l 252 408 l 63 714 z "},"«":{"ha":909,"x_min":77,"x_max":844,"o":"m 496 109 l 276 109 l 77 404 l 77 414 l 306 414 l 496 109 m 496 714 l 306 408 l 77 408 l 77 418 l 276 714 l 496 714 m 844 109 l 625 109 l 426 404 l 426 414 l 655 414 l 844 109 m 844 714 l 655 408 l 426 408 l 426 418 l 625 714 l 844 714 z "},"»":{"ha":915,"x_min":63,"x_max":836,"o":"m 63 109 l 252 414 l 481 414 l 481 404 l 282 109 l 63 109 m 63 714 l 282 714 l 481 418 l 481 408 l 252 408 l 63 714 m 418 109 l 607 414 l 836 414 l 836 404 l 637 109 l 418 109 m 418 714 l 637 714 l 836 418 l 836 408 l 607 408 l 418 714 z "},"<":{"ha":953,"x_min":119,"x_max":834,"o":"m 119 305 l 119 510 l 834 810 l 834 585 l 362 409 l 369 420 l 369 394 l 362 405 l 834 229 l 834 5 l 119 305 z "},">":{"ha":953,"x_min":119,"x_max":834,"o":"m 834 305 l 119 5 l 119 229 l 591 405 l 584 394 l 584 420 l 591 409 l 119 585 l 119 810 l 834 510 l 834 305 z "},"=":{"ha":953,"x_min":124,"x_max":830,"o":"m 124 478 l 124 676 l 830 676 l 830 478 l 124 478 m 124 139 l 124 336 l 830 336 l 830 139 l 124 139 z "},"+":{"ha":953,"x_min":119,"x_max":834,"o":"m 377 50 l 377 764 l 576 764 l 576 50 l 377 50 m 119 308 l 119 507 l 834 507 l 834 308 l 119 308 z "},"−":{"ha":953,"x_min":121,"x_max":832,"o":"m 832 507 l 832 308 l 121 308 l 121 507 l 832 507 z "},"×":{"ha":953,"x_min":103,"x_max":851,"o":"m 703 33 l 103 632 l 250 781 l 851 181 l 703 33 m 250 33 l 103 181 l 703 781 l 851 632 l 250 33 z "},"÷":{"ha":953,"x_min":121,"x_max":832,"o":"m 832 500 l 832 314 l 121 314 l 121 500 l 832 500 m 476 -2 q 385 36 423 -2 q 347 127 347 73 q 385 218 347 181 q 476 255 423 255 q 567 218 530 255 q 605 127 605 181 q 567 36 605 73 q 476 -2 530 -2 m 476 559 q 411 577 441 559 q 364 624 382 594 q 347 689 347 653 q 385 780 347 742 q 476 817 423 817 q 567 780 530 817 q 605 689 605 742 q 567 597 605 635 q 476 559 530 559 z "},"±":{"ha":953,"x_min":119,"x_max":834,"o":"m 119 35 l 119 221 l 834 221 l 834 35 l 119 35 m 119 449 l 119 629 l 834 629 l 834 449 l 119 449 m 377 289 l 377 789 l 576 789 l 576 289 l 377 289 z "},"~":{"ha":953,"x_min":100,"x_max":854,"o":"m 104 263 q 125 431 100 361 q 200 537 149 500 q 323 574 250 574 q 410 556 367 574 q 507 490 452 538 q 551 454 533 467 q 596 440 570 440 q 651 467 628 440 q 671 553 673 493 l 850 553 q 828 386 854 456 q 752 279 802 317 q 631 242 701 242 q 539 262 582 242 q 445 327 496 282 q 399 364 416 352 q 358 376 382 376 q 303 350 325 376 q 283 263 281 324 l 104 263 z "},"¬":{"ha":824,"x_min":119,"x_max":708,"o":"m 708 546 l 708 430 l 119 430 l 119 546 l 708 546 m 708 493 l 708 254 l 567 254 l 567 493 l 708 493 z "},"_":{"ha":673,"x_min":0,"x_max":674,"o":"m 674 0 l 674 -177 l 0 -177 l 0 0 l 674 0 z "},"^":{"ha":686,"x_min":42,"x_max":643,"o":"m 325 893 l 361 893 l 361 837 l 325 837 l 325 893 m 42 552 l 252 991 l 434 991 l 643 552 l 470 552 l 338 857 l 347 857 l 216 552 l 42 552 z "},"*":{"ha":814,"x_min":124,"x_max":690,"o":"m 334 442 l 349 624 l 197 520 l 124 648 l 289 726 l 124 804 l 197 932 l 349 828 l 334 1010 l 480 1010 l 466 828 l 618 932 l 690 804 l 525 726 l 690 648 l 618 520 l 466 624 l 480 442 l 334 442 z "},"®":{"ha":918,"x_min":65,"x_max":854,"o":"m 315 452 l 315 816 l 491 816 q 559 801 529 816 q 605 759 589 786 q 622 694 622 732 q 605 629 622 655 q 557 588 587 602 q 487 574 527 574 l 369 574 l 369 645 l 469 645 q 505 657 491 645 q 518 694 518 670 q 505 731 518 719 q 469 742 491 742 l 414 742 l 414 452 l 315 452 m 551 618 l 632 452 l 523 452 l 449 618 l 551 618 m 459 235 q 306 265 377 235 q 180 350 234 296 q 95 476 126 404 q 65 629 65 547 q 95 783 65 711 q 180 908 126 854 q 306 993 234 963 q 459 1024 377 1024 q 613 993 541 1024 q 738 908 684 963 q 823 783 793 854 q 854 629 854 711 q 823 476 854 547 q 738 350 793 404 q 613 265 684 296 q 459 235 541 235 m 459 342 q 604 381 539 342 q 708 485 669 420 q 747 629 747 550 q 708 774 747 709 q 604 878 669 839 q 459 916 539 916 q 315 878 380 916 q 211 774 250 839 q 172 629 172 709 q 211 485 172 550 q 315 381 250 420 q 459 342 380 342 z "},"©":{"ha":1271,"x_min":114,"x_max":1157,"o":"m 365 505 q 402 642 365 581 q 501 741 439 704 q 639 778 563 778 q 761 749 705 778 q 854 669 818 720 q 898 555 890 619 l 742 555 q 706 609 735 588 q 639 629 677 629 q 577 613 605 629 q 531 568 548 596 q 514 506 514 540 q 531 443 514 472 q 577 398 548 415 q 639 381 605 381 q 705 401 677 381 q 740 455 733 422 l 896 455 q 853 341 888 391 q 761 261 817 291 q 639 232 705 232 q 501 269 563 232 q 402 368 439 306 q 365 505 365 430 m 635 -16 q 433 25 528 -16 q 267 137 339 65 q 155 303 195 209 q 114 505 114 397 q 156 707 115 613 q 268 873 196 801 q 434 985 339 945 q 635 1026 528 1026 q 838 985 743 1026 q 1003 873 932 945 q 1115 707 1075 801 q 1156 505 1156 613 q 1116 303 1157 397 q 1004 137 1076 209 q 838 25 933 65 q 635 -16 743 -16 m 635 165 q 768 191 706 165 q 876 265 830 218 q 949 373 923 311 q 976 505 976 434 q 949 637 975 576 q 876 746 922 699 q 767 819 829 792 q 635 845 706 845 q 504 819 565 845 q 396 745 442 792 q 322 637 349 698 q 295 505 295 575 q 321 373 295 435 q 395 265 348 312 q 503 191 441 218 q 635 165 565 165 z "},"™":{"ha":908,"x_min":55,"x_max":844,"o":"m 614 647 l 474 1010 l 560 1010 l 642 779 l 725 1010 l 810 1010 l 671 647 l 614 647 m 440 647 l 440 1010 l 542 1010 l 542 647 l 440 647 m 743 647 l 743 1010 l 844 1010 l 844 647 l 743 647 m 166 647 l 166 979 l 267 979 l 267 647 l 166 647 m 55 928 l 55 1010 l 377 1010 l 377 928 l 55 928 z "},"°":{"ha":641,"x_min":73,"x_max":568,"o":"m 321 522 q 196 555 252 522 q 106 645 140 588 q 73 769 73 701 q 106 894 73 837 q 196 983 140 950 q 321 1017 252 1017 q 445 983 389 1017 q 534 894 501 950 q 568 769 568 837 q 534 645 568 701 q 445 555 501 588 q 321 522 389 522 m 321 676 q 367 688 346 676 q 401 722 389 701 q 414 769 414 743 q 401 816 414 795 q 367 850 389 837 q 321 863 346 863 q 273 850 294 863 q 239 816 252 837 q 227 769 227 795 q 239 722 227 743 q 273 688 252 700 q 321 676 295 676 z "},"ª":{"ha":694,"x_min":121,"x_max":575,"o":"m 433 584 l 433 815 q 413 878 433 855 q 350 902 393 902 q 279 884 305 902 q 254 835 254 867 l 131 843 q 192 957 131 912 q 350 1002 252 1002 q 499 955 443 1002 q 555 815 555 908 l 555 602 q 559 543 555 574 q 575 478 562 511 l 450 478 q 437 527 442 500 q 433 584 433 555 m 464 780 l 464 701 l 362 701 q 273 678 301 701 q 245 626 245 655 q 264 583 245 599 q 327 567 284 567 q 384 579 355 567 q 434 610 414 592 q 454 645 454 628 l 466 565 q 409 500 450 531 q 295 470 367 470 q 166 512 212 470 q 121 623 121 554 q 181 739 121 699 q 362 780 240 780 l 464 780 z "},"º":{"ha":690,"x_min":101,"x_max":589,"o":"m 101 708 l 101 760 q 131 885 101 831 q 216 971 161 940 q 345 1002 270 1002 q 523 934 458 1002 q 589 760 589 866 l 589 708 q 560 584 589 638 q 476 499 531 530 q 347 468 422 468 q 167 536 233 468 q 101 708 101 603 m 224 760 l 224 708 q 254 608 224 648 q 347 568 285 568 q 436 608 407 568 q 466 708 466 648 l 466 760 q 436 860 466 819 q 345 902 406 902 q 254 860 285 902 q 224 760 224 819 z "},"¶":{"ha":851,"x_min":66,"x_max":775,"o":"m 652 831 l 471 831 l 471 375 l 411 375 q 222 416 299 375 q 105 529 145 457 q 66 692 66 601 q 105 855 66 783 q 222 968 145 927 q 411 1010 299 1010 l 652 1010 l 652 831 m 593 0 l 593 1010 l 775 1010 l 775 0 l 593 0 z "},"§":{"ha":843,"x_min":76,"x_max":768,"o":"m 714 756 l 506 756 q 481 805 505 785 q 412 825 458 825 q 372 820 393 825 q 338 802 352 815 q 325 767 325 790 q 340 728 325 745 q 375 699 354 711 q 414 682 396 688 l 603 602 q 652 578 622 594 q 709 535 681 562 q 752 468 736 508 q 763 371 768 428 q 735 303 758 328 q 686 264 713 277 q 643 247 660 252 l 640 245 q 706 160 684 207 q 729 54 729 113 q 690 -83 729 -26 q 581 -172 650 -141 q 424 -204 512 -204 q 256 -169 328 -204 q 144 -73 184 -135 q 104 73 104 -11 l 313 73 q 342 14 312 35 q 427 -3 372 -6 q 488 11 459 -1 q 518 54 517 24 q 503 92 518 75 q 468 120 488 109 q 432 139 448 132 l 244 217 q 193 241 223 225 q 136 284 164 257 q 92 352 109 312 q 82 450 76 393 q 108 518 87 493 q 156 556 129 544 q 203 574 183 569 l 203 575 q 139 660 163 613 q 115 767 114 707 q 153 899 115 841 q 258 990 190 957 q 412 1024 325 1024 q 570 989 503 1024 q 676 893 638 954 q 714 756 714 833 m 569 357 q 565 383 572 369 q 541 409 558 396 q 493 433 523 421 l 338 495 q 308 499 322 501 q 286 487 295 496 q 274 464 277 478 q 288 424 269 445 q 350 388 307 404 l 508 325 q 534 322 522 320 q 556 333 546 325 q 569 357 565 342 z "},"¹":{"ha":449,"x_min":49,"x_max":352,"o":"m 194 505 l 194 963 l 190 963 l 49 876 l 49 1014 l 205 1111 l 352 1111 l 352 505 l 194 505 z "},"²":{"ha":590,"x_min":43,"x_max":548,"o":"m 58 505 l 58 624 l 301 812 q 346 849 327 832 q 376 882 365 865 q 387 921 387 900 q 360 971 387 954 q 294 988 332 988 q 227 969 253 988 q 202 910 202 949 l 43 910 q 114 1064 43 1009 q 296 1119 185 1119 q 428 1092 372 1119 q 514 1022 484 1066 q 545 923 545 978 q 527 841 545 879 q 470 767 508 803 q 372 695 432 732 l 297 646 l 297 641 l 548 641 l 548 505 l 58 505 z "},"³":{"ha":620,"x_min":40,"x_max":579,"o":"m 307 497 q 171 520 231 497 q 77 585 111 544 q 40 683 42 627 l 210 683 q 240 647 213 659 q 307 635 268 635 q 376 649 347 635 q 405 691 405 663 q 376 735 405 718 q 297 752 348 752 l 220 752 l 220 875 l 297 875 q 365 891 340 875 q 390 932 390 908 q 368 973 390 958 q 309 988 345 988 q 242 974 270 988 q 214 937 215 959 l 54 937 q 90 1032 55 990 q 182 1096 124 1073 q 311 1119 239 1119 q 438 1095 384 1119 q 522 1031 492 1071 q 551 943 551 991 q 515 858 551 890 q 427 821 478 827 l 427 815 q 538 774 498 809 q 579 681 579 739 q 543 585 579 626 q 447 521 508 544 q 307 497 386 497 z "},"⁴":{"ha":645,"x_min":38,"x_max":610,"o":"m 38 599 l 38 731 l 314 1111 l 427 1111 l 427 934 l 361 934 l 206 738 l 206 733 l 610 733 l 610 599 l 38 599 m 364 505 l 364 639 l 368 698 l 368 1111 l 524 1111 l 524 505 l 364 505 z "},"⁄":{"ha":379,"x_min":-226,"x_max":603,"o":"m -226 0 l 469 1010 l 603 1010 l -91 0 l -226 0 z "},"½":{"ha":1268,"x_min":39,"x_max":1230,"o":"m 159 0 l 854 1010 l 988 1010 l 294 0 l 159 0 m 171 473 l 171 872 l 168 872 l 39 794 l 39 922 l 182 1010 l 318 1010 l 318 473 l 171 473 m 793 0 l 793 107 l 1014 273 q 1067 318 1044 296 q 1090 368 1090 339 q 1065 411 1090 397 q 1004 426 1040 426 q 945 409 967 426 q 922 359 922 393 l 781 359 q 845 495 781 446 q 1008 545 909 545 q 1169 494 1109 545 q 1230 370 1230 443 q 1213 295 1230 329 q 1161 231 1196 261 q 1073 169 1126 200 l 1006 128 l 1006 122 l 1231 122 l 1231 0 l 793 0 z "},"¼":{"ha":1219,"x_min":39,"x_max":1189,"o":"m 159 0 l 854 1010 l 988 1010 l 294 0 l 159 0 m 171 473 l 171 872 l 168 872 l 39 794 l 39 922 l 182 1010 l 318 1010 l 318 473 l 171 473 m 674 82 l 674 201 l 921 537 l 1022 537 l 1022 378 l 964 378 l 824 208 l 824 203 l 1189 203 l 1189 82 l 674 82 m 968 0 l 968 117 l 970 172 l 970 537 l 1109 537 l 1109 0 l 968 0 z "},"¾":{"ha":1348,"x_min":37,"x_max":1317,"o":"m 288 0 l 982 1010 l 1117 1010 l 423 0 l 288 0 m 802 82 l 802 201 l 1050 537 l 1151 537 l 1151 378 l 1093 378 l 953 208 l 953 203 l 1317 203 l 1317 82 l 802 82 m 1096 0 l 1096 117 l 1098 172 l 1098 537 l 1238 537 l 1238 0 l 1096 0 m 278 466 q 152 487 206 466 q 69 546 99 509 q 37 629 38 583 l 189 629 q 215 599 191 610 q 273 587 239 587 q 340 601 313 587 q 367 638 367 614 q 342 675 367 660 q 269 690 317 690 l 197 690 l 197 802 l 269 802 q 329 816 306 802 q 352 852 352 830 q 332 888 352 874 q 277 902 312 902 q 219 890 245 902 q 192 858 194 878 l 49 858 q 82 942 51 906 q 165 998 113 978 q 281 1018 218 1018 q 395 997 346 1018 q 470 940 443 976 q 497 862 497 905 q 467 789 497 818 q 388 754 436 760 l 388 748 q 487 710 453 743 q 521 628 521 678 q 489 544 521 581 q 402 486 457 507 q 278 466 347 466 z "},"%":{"ha":1215,"x_min":116,"x_max":1102,"o":"m 640 189 l 640 243 q 667 358 640 305 q 745 442 694 410 q 871 474 797 474 q 998 443 946 474 q 1075 358 1049 411 q 1102 243 1102 306 l 1102 189 q 1075 74 1102 127 q 997 -10 1049 22 q 871 -42 945 -42 q 744 -10 796 -42 q 667 74 693 22 q 640 189 640 127 m 798 243 l 798 189 q 813 129 798 158 q 871 100 829 100 q 928 128 913 100 q 943 189 943 156 l 943 243 q 929 305 943 276 q 871 334 915 334 q 813 305 829 334 q 798 243 798 276 m 116 767 l 116 821 q 144 936 116 884 q 222 1021 171 989 q 347 1053 274 1053 q 474 1021 422 1053 q 552 936 525 989 q 579 821 579 884 l 579 767 q 552 652 579 704 q 473 569 525 600 q 347 538 421 538 q 221 569 272 538 q 143 653 169 601 q 116 767 116 705 m 275 821 l 275 767 q 291 706 275 734 q 347 678 306 678 q 405 706 390 678 q 419 767 419 734 l 419 821 q 405 883 419 854 q 347 912 392 912 q 290 882 305 912 q 275 821 275 852 m 191 0 l 885 1010 l 1020 1010 l 326 0 l 191 0 z "},"´":{"ha":690,"x_min":259,"x_max":572,"o":"m 259 854 l 359 1076 l 572 1076 l 423 854 l 259 854 z "},"`":{"ha":690,"x_min":188,"x_max":502,"o":"m 338 854 l 188 1076 l 402 1076 l 502 854 l 338 854 z "},"¨":{"ha":717,"x_min":93,"x_max":623,"o":"m 205 854 q 126 885 159 854 q 93 961 93 917 q 126 1037 93 1006 q 205 1068 159 1068 q 283 1037 251 1068 q 316 961 316 1006 q 283 885 316 917 q 205 854 251 854 m 513 854 q 434 885 467 854 q 401 961 401 917 q 434 1037 401 1006 q 513 1068 467 1068 q 591 1037 559 1068 q 623 961 623 1006 q 591 885 623 917 q 513 854 559 854 z "},"ˆ":{"ha":827,"x_min":113,"x_max":713,"o":"m 511 848 l 413 963 l 316 848 l 113 848 l 113 855 l 327 1076 l 500 1076 l 713 855 l 713 848 l 511 848 z "},"˜":{"ha":694,"x_min":84,"x_max":611,"o":"m 210 851 l 84 852 q 132 1004 84 952 q 248 1055 180 1055 q 310 1044 285 1055 q 356 1017 336 1032 q 394 990 376 1001 q 431 978 411 978 q 473 999 459 979 q 487 1054 486 1019 l 611 1053 q 562 902 609 954 q 446 849 514 850 q 383 861 409 849 q 338 888 357 872 q 301 915 319 903 q 263 926 284 926 q 224 907 239 926 q 210 851 210 887 z "},"¯":{"ha":838,"x_min":176,"x_max":662,"o":"m 662 1010 l 662 891 l 176 891 l 176 1010 l 662 1010 z "},"˚":{"ha":567,"x_min":118,"x_max":448,"o":"m 283 837 q 200 859 238 837 q 140 917 163 881 q 118 997 118 953 q 140 1078 118 1042 q 200 1137 163 1115 q 283 1159 238 1159 q 366 1137 329 1159 q 426 1078 404 1115 q 448 997 448 1042 q 426 917 448 953 q 366 859 404 881 q 283 837 329 837 m 283 930 q 334 950 313 930 q 354 997 354 970 q 334 1046 354 1025 q 283 1066 313 1066 q 233 1045 254 1065 q 212 997 212 1025 q 233 950 212 970 q 283 930 254 930 z "},"¸":{"ha":570,"x_min":167,"x_max":447,"o":"m 238 4 l 334 4 l 327 -40 q 413 -80 381 -48 q 446 -161 446 -111 q 373 -283 447 -238 q 168 -327 299 -327 l 167 -228 q 272 -213 235 -228 q 310 -167 309 -198 q 288 -121 312 -138 q 215 -98 264 -104 l 238 4 z "}," ":{"ha":299,"x_min":0,"x_max":0,"o":""}," ":{"ha":299,"x_min":0,"x_max":0,"o":""}," ":{"ha":694,"x_min":0,"x_max":0,"o":""}," ":{"ha":202,"x_min":0,"x_max":0,"o":""},"​":{"ha":0,"x_min":0,"x_max":0,"o":""},"↑":{"ha":1326,"x_min":195,"x_max":1130,"o":"m 570 0 l 570 670 l 323 422 l 195 549 l 663 1016 l 1130 549 l 1004 422 l 756 670 l 756 0 l 570 0 z "},"↓":{"ha":1326,"x_min":196,"x_max":1131,"o":"m 756 1010 l 756 340 l 1003 588 l 1131 461 l 663 -6 l 196 461 l 322 588 l 570 340 l 570 1010 l 756 1010 z "},"Ð":{"ha":1014,"x_min":-59,"x_max":948,"o":"m 450 0 l 181 0 l 181 208 l 440 208 q 584 237 525 208 q 673 331 643 266 q 704 506 704 397 q 673 679 704 615 q 583 773 643 744 q 437 802 524 802 l 176 802 l 176 1010 l 449 1010 q 715 950 604 1010 q 888 776 827 889 q 948 506 948 663 q 888 234 948 348 q 716 60 828 121 q 450 0 604 0 m 321 1010 l 321 0 l 76 0 l 76 1010 l 321 1010 m -59 469 l -59 604 l 453 604 l 453 469 l -59 469 z "},"ʻ":{"ha":425,"x_min":93,"x_max":332,"o":"m 93 685 l 93 822 q 112 922 93 871 q 160 1016 131 972 q 222 1089 190 1059 l 332 1035 q 295 944 311 994 q 279 822 280 894 l 279 685 l 93 685 z "},"﻿":{"ha":0,"x_min":0,"x_max":0,"o":""}}}
